<svg width="24" height="24" viewBox="0 0 24 24" fill="none" xmlns="http://www.w3.org/2000/svg">
<path d="M13.666 1C13.666 1 16.2327 1.23333 19.4994 4.50001C22.766 7.76668 22.9994 10.3334 22.9994 10.3334" stroke="#6C7481" stroke-width="1.4" stroke-linecap="round"/>
<path d="M13.9082 5.12495C13.9082 5.12495 15.0632 5.45495 16.7956 7.18736C18.528 8.91978 18.858 10.0747 18.858 10.0747" stroke="#6C7481" stroke-width="1.4" stroke-linecap="round"/>
<path d="M9.04388 4.86888L9.80105 6.22563C10.4844 7.45003 10.2101 9.05623 9.13384 10.1325C9.13384 10.1325 7.82854 11.438 10.1953 13.8048C12.5613 16.1708 13.8676 14.8662 13.8676 14.8662C14.9438 13.79 16.55 13.5157 17.7744 14.199L19.1311 14.9562C20.9801 15.988 21.1984 18.5808 19.5733 20.206C18.5968 21.1825 17.4005 21.9423 16.0781 21.9924C13.852 22.0768 10.0714 21.5134 6.279 17.7211C2.48665 13.9287 1.92325 10.1481 2.00764 7.92196C2.05778 6.59955 2.8176 5.40328 3.79412 4.42678C5.41923 2.80167 8.01205 3.02002 9.04388 4.86888Z" stroke="#6C7481" stroke-width="1.4" stroke-linecap="round"/>
</svg>
