<svg width="20" height="20" viewBox="0 0 20 20" fill="none" xmlns="http://www.w3.org/2000/svg">
<path d="M13.3758 5.18362H14.9295C15.7063 5.18362 16.3588 5.75848 16.4676 6.51974L18.0213 17.3954C18.0368 17.4576 18.0368 17.5353 18.0368 17.613C18.0368 18.4675 17.3377 19.1667 16.4832 19.1667H4.05379C3.19927 19.1667 2.50012 18.4675 2.50012 17.613C2.50012 17.5353 2.50012 17.4576 2.51566 17.3954L4.06933 6.51974C4.17813 5.75848 4.83063 5.18362 5.60747 5.18362H10.2685" stroke="white" stroke-width="1.2" stroke-miterlimit="10" stroke-linecap="round" stroke-linejoin="round"/>
<path d="M7.16101 5.18361V3.94068C7.16101 2.22453 8.55221 0.833332 10.2684 0.833332C11.9845 0.833332 13.3757 2.22453 13.3757 3.94068V5.18361" stroke="white" stroke-width="1.2" stroke-miterlimit="10" stroke-linecap="round" stroke-linejoin="round"/>
<path d="M7.16101 8.29096V9.84463C7.16101 11.5608 8.55221 12.952 10.2684 12.952C11.9845 12.952 13.3757 11.5608 13.3757 9.84463V8.29096" stroke="white" stroke-width="1.2" stroke-miterlimit="10" stroke-linecap="round" stroke-linejoin="round"/>
</svg>
