<svg width="30" height="30" viewBox="0 0 30 30" fill="none" xmlns="http://www.w3.org/2000/svg">
<path d="M18.75 9.37488L8.9883 19.3007C8.66513 19.6573 8.49149 20.1246 8.50334 20.6058C8.51518 21.0869 8.71161 21.5451 9.05194 21.8855C9.39228 22.2258 9.85046 22.4222 10.3316 22.4341C10.8128 22.4459 11.2801 22.2723 11.6367 21.9491L23.2735 10.1483C23.9198 9.43497 24.2671 8.50039 24.2434 7.53807C24.2197 6.57575 23.8268 5.65939 23.1462 4.97872C22.4655 4.29805 21.5492 3.9052 20.5868 3.88151C19.6245 3.85781 18.6899 4.20509 17.9766 4.85144L6.33986 16.6522C5.28625 17.7058 4.69434 19.1348 4.69434 20.6249C4.69434 22.1149 5.28625 23.5439 6.33986 24.5975C7.39348 25.6511 8.82249 26.2431 10.3125 26.2431C11.8026 26.2431 13.2316 25.6511 14.2852 24.5975L23.9063 14.9999" stroke="white" stroke-width="1.4" stroke-linecap="round" stroke-linejoin="round"/>
</svg>
