<svg width="185" height="185" viewBox="0 0 185 185" fill="none" xmlns="http://www.w3.org/2000/svg">
<path d="M92.5 0.5C143.31 0.5 184.5 41.6898 184.5 92.5C184.5 143.143 143.58 184.227 93 184.496V184.5H92V184.496C41.4199 184.227 0.5 143.143 0.5 92.5C0.5 41.6898 41.6898 0.5 92.5 0.5ZM92.5 51.5C69.8563 51.5 51.5 69.8563 51.5 92.5C51.5 115.144 69.8563 133.5 92.5 133.5C115.144 133.5 133.5 115.144 133.5 92.5C133.5 69.8563 115.144 51.5 92.5 51.5Z" stroke="#6C7481"/>
<mask id="mask0_38_259" style="mask-type:alpha" maskUnits="userSpaceOnUse" x="0" y="0" width="185" height="185">
<path d="M92.5 0.5C143.31 0.5 184.5 41.6898 184.5 92.5C184.5 143.143 143.58 184.227 93 184.496V184.5H92V184.496C41.4199 184.227 0.5 143.143 0.5 92.5C0.5 41.6898 41.6898 0.5 92.5 0.5ZM92.5 51.5C69.8563 51.5 51.5 69.8563 51.5 92.5C51.5 115.144 69.8563 133.5 92.5 133.5C115.144 133.5 133.5 115.144 133.5 92.5C133.5 69.8563 115.144 51.5 92.5 51.5Z" fill="#13284E" stroke="#6C7481"/>
</mask>
<g mask="url(#mask0_38_259)">
<g opacity="0.14">
<rect x="93.7337" y="-65.2935" width="236.5" height="219" transform="rotate(47.3312 93.7337 -65.2935)" stroke="#6C7481"/>
<path d="M93.7625 -66L254.73 108.63" stroke="#6C7481"/>
<path d="M86.4096 -59.2224L247.377 115.407" stroke="#6C7481"/>
<path d="M79.0568 -52.4448L240.025 122.185" stroke="#6C7481"/>
<path d="M71.7039 -45.6672L232.672 128.963" stroke="#6C7481"/>
<path d="M64.3511 -38.8896L225.319 135.74" stroke="#6C7481"/>
<path d="M56.9983 -32.1121L217.966 142.518" stroke="#6C7481"/>
<path d="M49.6454 -25.3345L210.613 149.295" stroke="#6C7481"/>
<path d="M42.2926 -18.5569L203.26 156.073" stroke="#6C7481"/>
<path d="M34.9398 -11.7793L195.908 162.851" stroke="#6C7481"/>
<path d="M27.5869 -5.00171L188.555 169.628" stroke="#6C7481"/>
<path d="M20.2341 1.776L181.202 176.406" stroke="#6C7481"/>
<path d="M12.8812 8.55359L173.849 183.183" stroke="#6C7481"/>
<path d="M5.52838 15.3312L166.496 189.961" stroke="#6C7481"/>
<path d="M-1.82446 22.1088L159.143 196.739" stroke="#6C7481"/>
<path d="M-9.17731 28.8864L151.791 203.516" stroke="#6C7481"/>
<path d="M-16.5301 35.6639L144.438 210.294" stroke="#6C7481"/>
<path d="M-23.8829 42.4415L137.085 217.071" stroke="#6C7481"/>
<path d="M-31.2358 49.2191L129.732 223.849" stroke="#6C7481"/>
<path d="M-38.5886 55.9967L122.379 230.627" stroke="#6C7481"/>
<path d="M-45.9415 62.7743L115.026 237.404" stroke="#6C7481"/>
<path d="M-53.2943 69.5519L107.674 244.182" stroke="#6C7481"/>
<path d="M-60.6472 76.3295L100.321 250.959" stroke="#6C7481"/>
<path d="M-68 83.1071L92.9679 257.737" stroke="#6C7481"/>
</g>
</g>
</svg>
