<svg width="875" height="444" viewBox="0 0 875 444" fill="none" xmlns="http://www.w3.org/2000/svg">
<g opacity="0.07">
<mask id="path-1-inside-1_43_3490" fill="white">
<path d="M288.603 262.437L289.002 262.304L288.869 261.905L288.204 261.639L288.603 262.437Z"/>
</mask>
<path d="M288.603 262.437L287.709 262.884L288.096 263.659L288.918 263.386L288.603 262.437ZM289.002 262.304L289.317 263.253L290.268 262.938L289.951 261.988L289.002 262.304ZM288.869 261.905L289.817 261.588L289.671 261.149L289.241 260.977L288.869 261.905ZM288.204 261.639L288.576 260.71L286.132 259.731L287.309 262.086L288.204 261.639ZM288.603 262.437L288.918 263.386L289.317 263.253L289.002 262.304L288.687 261.355L288.288 261.488L288.603 262.437ZM289.002 262.304L289.951 261.988L289.817 261.588L288.869 261.905L287.92 262.222L288.054 262.621L289.002 262.304ZM288.869 261.905L289.241 260.977L288.576 260.71L288.204 261.639L287.832 262.567L288.497 262.833L288.869 261.905ZM288.204 261.639L287.309 262.086L287.709 262.884L288.603 262.437L289.497 261.99L289.098 261.191L288.204 261.639Z" fill="white" mask="url(#path-1-inside-1_43_3490)"/>
<path d="M634.373 4.05664L636.135 9.71875L635.133 12.3516L635.017 12.6543L636.607 14.2441L637.269 17.1143L634.982 17.8418L632.734 16.6582L628.536 11.3135L629.032 6.09668L632.336 2.55566L634.373 4.05664Z" stroke="white"/>
<path d="M646.447 60.3486L648.348 61.5791L648.169 62.5615L644.446 66.2852L643.109 64.375L645.56 60.1719L646.447 60.3486Z" stroke="white"/>
<path d="M319.007 112.719L317.033 112.166V111.364L318.352 111.117L319.007 112.719Z" stroke="white"/>
<path d="M324.981 116.309L323.491 118.452L322.074 117.212L323.048 115.262L324.981 116.309ZM322.585 112.076L322.334 113.08L321.734 111.792L322.585 112.076Z" stroke="white"/>
<path d="M312.592 111.347L312.228 112.44L310.962 110.836L311.02 110.614L312.592 111.347ZM311.958 108.879L311.341 109.393L311.545 108.621L311.958 108.879ZM310.955 105.905L310.464 106.83L310.01 106.252L309.86 106.061H308.875L309.496 105.647L310.116 105.233L310.955 105.905ZM318.394 102.005L318.289 102.146L318.295 102.323L318.413 105.873L316.568 106.18L312.028 104.754L311.631 104.629L311.436 104.997L311.034 105.755L310.912 104.77L310.718 103.233L312.468 103.32L313.012 104.625L313.187 105.045L313.621 104.911L315.35 104.379L315.659 104.283L315.699 103.963L315.916 102.219L318.481 101.888L318.394 102.005ZM309.563 104.789L309.316 104.74L307.836 104.444L308.05 103.58L309.563 104.789Z" stroke="white"/>
<path d="M327.361 122.844L326.982 122.086L328.539 122.025L327.361 122.844ZM328.599 116.84L329.004 118.383L327.023 117.912L326.407 117.765V120.935L325.452 119.025L326.638 115.467L328.599 116.84Z" stroke="white"/>
<path d="M314.148 100.436L314.003 100.774L313.983 100.363L314.148 100.436ZM312.602 99.7588L308.591 100.151L308.836 98.1113L312.602 99.7588Z" stroke="white"/>
<path d="M328.317 107.852L329.566 111.714L326.907 111.988L327.007 110.18L327.031 109.747L326.606 109.661L324.902 109.32L324.529 108.126H327.672V106.938L328.317 107.852Z" stroke="white"/>
<path d="M334.834 104.667L335.022 106.546L333.81 104.667H334.834Z" stroke="white"/>
<path d="M337.417 116.936L336.3 118.387L333.587 119.517L331.532 116.812L333.316 114.607L336.035 115.672L336.546 115.872L336.698 115.344L336.963 114.412L336.984 114.337L337.417 116.936ZM337.546 113.161L337.121 113.472L336.871 113.653L336.921 113.958L336.939 114.067L336.917 114.027L336.342 113.022L337.546 113.161Z" stroke="white"/>
<path d="M329.401 166.646L331.233 168.02L331.58 170.22L330.743 172.611L328.274 174.34L323.745 175.892L311.651 176.812L309.466 176.299L309.394 176.282L309.32 176.286L303.068 176.686L302.958 176.692L302.862 176.745L296.478 180.203L296.442 180.223L296.408 180.248L294.304 181.884L292.878 180.896L292.494 180.631L292.202 180.995L291.047 182.438L289.426 179.845L288.7 178.685L288.507 180.039L287.918 184.155L286.721 183.879L286.47 183.821L286.277 183.992L281.674 188.068L275.681 190.939L273.538 188.677L272.751 189.286L273.889 191.106L272.986 192.192L270.222 191.591L269.807 192.473L271.226 193.587L270.304 194.51L269.309 193.912L268.985 193.718L268.709 193.977L264.188 198.233L264.049 198.363L264.032 198.552L263.92 199.773L261.065 201.636L260.628 201.921L260.931 202.346L261.433 203.048L260.079 206.249L260.062 206.29L260.052 206.333L258.989 210.988L258.97 211.068L258.979 211.151L259.644 217.535L259.652 217.61L259.681 217.681L260.703 220.066L259.74 220.629L254.848 217.816L253.973 214.688L253.794 214.052L253.231 214.396L251.472 215.47L250.926 212.084L250.865 211.704L250.482 211.666L249.406 211.558L247.904 208.926L249.039 209.068L249.563 209.134L249.601 208.607L249.681 207.476L251.813 208.492L253.034 209.074L252.485 207.838L250.969 204.428L251.701 202.354L251.823 202.012L251.533 201.791L247.19 198.469L247.084 196.978L248.794 193.801L251.956 192.445L252.929 194.066L253.238 194.581L253.688 194.186L259.141 189.396L259.41 189.16L259.273 188.829L258.786 187.663L259.976 187.068L261.997 188.377L262.466 188.681L264.181 185.251L266.575 185.143L267.482 186.161L267.623 186.32L267.835 186.329L270.914 186.452L271.438 187.184L272.33 186.771L272.064 185.708L272.001 185.456L271.758 185.362L269.49 184.489L271.632 183.634L272.473 183.298L271.74 182.765L270.469 181.84L270.378 180.225L274.891 180.344L275.077 180.349L275.221 180.231L277.963 177.986L279.727 178.34L280.277 178.45L280.323 177.891L280.396 177.015L282.536 178.034L283.53 178.507L283.233 177.448L282.551 175.016L284.595 175.666L285.435 175.933L285.233 175.074L284.867 173.521L287.073 173.822L288.396 174.003L287.516 172.998L285.891 171.141L286.201 170.608L286.971 171.977L287.229 172.436L287.674 172.153L291.25 169.888L292.311 171.477L292.877 172.327L293.2 171.356L293.862 169.372L295.698 169.696L295.847 169.723L295.985 169.662L300.989 167.48L304.128 168.61L304.582 168.774L304.761 168.326L305.042 167.621L306.512 168.797L306.984 169.174L307.266 168.64L308.27 166.744L309.479 167.116L312.315 170.081L312.48 170.255L312.718 170.234L322.029 169.437L322.124 169.429L322.209 169.386L327.69 166.646H329.401Z" stroke="white"/>
<path d="M344.107 118.057L341.62 119.075L339.488 118.648L339.403 117.129L342.374 116.902L342.533 116.889L342.656 116.788L344.192 115.505L344.107 118.057Z" stroke="white"/>
<path d="M338.09 102.288L337.087 102.748L337.41 102.098L338.09 102.288Z" stroke="white"/>
<path d="M331.474 110.24L331.539 110.303L331.621 110.341L332.052 110.538L330.829 111.062L330.279 109.043L331.474 110.24Z" stroke="white"/>
<mask id="path-17-inside-2_43_3490" fill="white">
<path d="M336.35 103.635L335.286 104.167H336.35V103.635Z"/>
</mask>
<path d="M336.35 103.635H337.35V102.018L335.903 102.741L336.35 103.635ZM335.286 104.167L334.839 103.272L335.286 105.167V104.167ZM336.35 104.167V105.167H337.35V104.167H336.35ZM336.35 103.635L335.903 102.741L334.839 103.272L335.286 104.167L335.733 105.061L336.797 104.53L336.35 103.635ZM335.286 104.167V105.167H336.35V104.167V103.167H335.286V104.167ZM336.35 104.167H337.35V103.635H336.35H335.35V104.167H336.35Z" fill="white" mask="url(#path-17-inside-2_43_3490)"/>
<path d="M332.677 107.397L332.218 107.857L331.354 107.034L331.637 106.187L331.796 105.708L332.677 107.397ZM330.743 106.3L330.995 106.692L330.002 105.747L330.126 105.342L330.743 106.3Z" stroke="white"/>
<path d="M248.678 202.023L248.365 204.951L247.568 205.449L247.985 204.06L248.034 203.896L247.972 203.736L247.306 202.023H248.678Z" stroke="white"/>
<path d="M221.926 210.868L223.05 215.618L222.841 216.455L222.785 216.332L217.398 217.613L214.104 215.612L214.214 213.321L217.41 210.372L220.519 209.894L221.926 210.868Z" stroke="white"/>
<path d="M266.129 235.358L265.268 236.886L262.448 235.32L262.888 233.564L262.949 233.316L262.784 233.121L261.432 231.521L261.311 228.387L262.173 226.989L264.272 226.689L266.129 235.358Z" stroke="white"/>
<path d="M291.18 291.721L290.68 292.865L289.206 291.576L288.996 290.042L291.18 291.721Z" stroke="white"/>
<path d="M347.121 231.512L345.023 232.912L342.817 232.47L345.402 229.884L347.121 231.512Z" stroke="white"/>
<path d="M323.482 214.267L323.456 214.791H324.778L324.701 215.938L324.583 215.626L324.209 215.655L319.217 216.037L319.01 215.872L320.59 212.375L323.586 212.168L323.482 214.267Z" stroke="white"/>
<path d="M395.617 125.798L396.609 126.512L395.799 126.294L395.758 126.283L395.716 126.279L393.465 126.064L393.551 125.591L395.617 125.798Z" stroke="white"/>
<path d="M406.683 128.506L406.712 128.553L406.752 128.594L408.573 130.413L407.636 131.01L407.368 131.18L407.409 131.495L408.021 136.283L402.815 138.143L402.625 138.211L402.536 138.39L401.729 140.003L396.914 136.678L397.408 135.002L398.907 134.426L399.149 134.332L399.212 134.08L400.143 130.356L400.345 129.548L399.536 129.75L398.854 129.92L399.536 128.042L402.846 126.006L402.92 125.961L402.975 125.892L404.13 124.446L406.683 128.506Z" stroke="white"/>
<path d="M411.128 176.558L409.171 178.27L409.02 178.403L409.002 178.603L408.761 181.369L408.563 181.457L408.661 178.48L411.128 176.298V176.558Z" stroke="white"/>
<path d="M400.563 141.583L398.879 144.017L396.611 142.288L395.839 140.403L400.563 141.583Z" stroke="white"/>
<path d="M423.226 146.563L423.099 152.302L424.087 152.42L424.721 149.502L426.081 148.141L428.26 150.895L428.384 151.052L428.581 151.08L430.184 151.308L431.324 153.589L430.952 155.822L430.883 156.237L431.221 156.354L430.664 156.336L430.468 156.329L430.319 156.458L428.396 158.123L422.102 160.354L421.949 160.408L421.857 160.541L419.668 163.701L418.197 163.268L419.167 158.667L419.172 158.64L419.175 158.613L420.097 149.259L421.912 145.513L423.226 146.563Z" stroke="white"/>
<path d="M411.476 141.016L412.394 142.42V138.938L413.139 138.869L415.364 141.562L415.254 142.549L415.251 142.576V147.558H413.531L414.159 148.364L416.758 151.705L415.944 153.333L412.414 154.04L409.933 152.179L409.813 152.089L409.663 152.08L405.498 151.827L403.866 149.729L403.614 146.816L403.588 146.525L403.323 146.405L401.861 145.74L401.604 145.623L401.371 145.782L401.087 145.977L402.862 143.421L402.897 143.37L402.919 143.312L404.426 139.291L409.415 137.865L411.476 141.016Z" stroke="white"/>
<path d="M438.218 157.905L437.344 157.866L438.184 157.466L438.218 157.905ZM435.435 157.192L435.288 157.045L435.468 156.925L435.435 157.192Z" stroke="white"/>
<path d="M352.856 227.124L352.568 228.85L350.913 228.482L350.271 227.291L352.14 225.515L352.856 227.124Z" stroke="white"/>
<path d="M544.535 120.04L544.456 120.484L544.89 120.608L546.526 121.074L547.741 123.839L544.37 126.629L541.621 125.943L539.334 122.257L538.986 121.697L538.54 122.183L537.077 123.78L536.797 124.085L537.046 124.417L538.643 126.545L538.731 126.662L538.867 126.713L544.187 128.708L544.383 128.781L544.573 128.694L547.257 127.447L546.251 130.558L544.726 130.667L544.447 130.687L544.318 130.935L541.365 136.58L539.199 137.062L538.394 137.24L538.926 137.872L540.69 139.967L537.85 141.823L532.525 141.316L530.494 140.349L531.128 139.786L531.638 139.333L531.054 138.984L527.953 137.123L527.837 135.258L527.82 134.996L527.595 134.861L525.869 133.825L526.315 129.047L527.313 129.38L527.405 129.41L527.503 129.405L535.881 128.872L537.095 128.795L536.178 127.996L532.528 124.817L533.484 124.122L534.235 123.576L533.37 123.252L536.552 123.02L536.756 123.004L536.891 122.851L539.708 119.649L544.803 118.517L544.535 120.04Z" stroke="white"/>
<path d="M564.795 140.072L564.532 141.123L559.796 144.964L557.066 146.135L556.914 146.2L556.831 146.343L556.386 147.105L553.967 141.831L555.352 139.405L557.243 138.579L561.669 138.452L564.795 140.072Z" stroke="white"/>
<path d="M560.72 107.522L559.985 112.054L557.777 114.509L549.696 117.287L547.855 115.286L549.463 115.566L549.921 115.646L550.034 115.195L550.417 113.663L552.047 110.751L554.186 111.427L554.702 111.59L554.823 111.062L555.188 109.481L559.103 105.804L560.72 107.522Z" stroke="white"/>
<path d="M525.258 140.229L526.486 142.683L526.265 142.978L523.77 139.795L525.258 140.229Z" stroke="white"/>
<path d="M471.759 196.297L471.302 199.608L469.568 199.811L467.339 198.742L467.828 198.52L468.202 198.35L468.108 197.951L467.688 196.173L471.223 195.316L471.759 196.297Z" stroke="white"/>
<path d="M551.404 141.398L551.269 142.417L548.603 141.274L549.123 140.009L551.404 141.398Z" stroke="white"/>
<path d="M645.647 97.9016L645.226 98.1731L643.676 97.7502L645.647 97.9016ZM643.486 97.6985L641.295 97.1008L641.144 96.7073L643.486 97.6985Z" stroke="white"/>
<path d="M721.333 307.74L722.353 309.781L722.453 312.076L719.635 311.426L719.123 311.307L719.031 311.826L718.718 313.594L718.268 313.514L718.451 313.406L718.756 313.222L718.682 312.874L717.82 308.81L719.532 307.634L721.333 307.74Z" stroke="white"/>
<path d="M865.991 330.212L865.982 330.293L865.999 330.373L867.052 335.239V337.949L867.231 338.099L868.222 338.924L867.821 339.051L867.098 338.809L866.854 335.023L866.849 334.947L866.821 334.877L864.538 328.914L866.354 326.941L865.991 330.212Z" stroke="white"/>
<path d="M874.371 329.365L874.003 330.333L874.033 329.457L874.399 328.692L874.371 329.365Z" stroke="white"/>
<path d="M867.095 312.781L868.127 315.104L868.87 322.04L868.737 322.073L868.309 319.928L868.305 319.912L866.988 314.247V312.54L867.095 312.781ZM869.221 301.081L868.401 304.66L867.936 301.865L868.37 300.82L869.221 301.081ZM866.988 309.445L866.842 309.298L865.904 308.362L866.992 308.422L867.32 308.441L867.467 308.147L867.883 307.315L868.606 310.092L867.136 312.301L866.988 312.522V309.445Z" stroke="white"/>
<path d="M870.251 286.214L870.766 292.67L870.498 293.252L869.546 291.003L869.893 289.846L869.931 289.717L869.901 289.587L868.738 284.678L869.255 283.276L870.251 286.214Z" stroke="white"/>
<mask id="path-46-inside-3_43_3490" fill="white">
<path d="M869.015 265.363L867.685 261.772L867.153 262.969L868.616 267.225L869.015 265.363Z"/>
</mask>
<path d="M869.015 265.363L869.993 265.573L870.054 265.288L869.953 265.016L869.015 265.363ZM867.685 261.772L868.622 261.425L867.768 259.119L866.771 261.366L867.685 261.772ZM867.153 262.969L866.239 262.564L866.08 262.923L866.207 263.294L867.153 262.969ZM868.616 267.225L867.67 267.55L868.84 270.953L869.594 267.435L868.616 267.225ZM869.015 265.363L869.953 265.016L868.622 261.425L867.685 261.772L866.747 262.119L868.078 265.711L869.015 265.363ZM867.685 261.772L866.771 261.366L866.239 262.564L867.153 262.969L868.067 263.375L868.599 262.178L867.685 261.772ZM867.153 262.969L866.207 263.294L867.67 267.55L868.616 267.225L869.562 266.9L868.099 262.644L867.153 262.969ZM868.616 267.225L869.594 267.435L869.993 265.573L869.015 265.363L868.037 265.154L867.638 267.016L868.616 267.225Z" fill="white" mask="url(#path-46-inside-3_43_3490)"/>
<path d="M844.184 212.776L847.895 216.616L847.782 221.949L846.015 221.276L846.503 217.008L846.529 216.784L846.379 216.617L844.118 214.091L844.11 214.082L844.07 212.658L844.184 212.776ZM845.328 210.647L844.153 212.116L844.058 212.233L844 210.116L845.328 210.647Z" stroke="white"/>
<path d="M759.445 288.595L764.789 290.289L769.187 293.265L772.198 297.061L772.236 297.109L772.284 297.146L776.407 300.339L776.558 300.456L776.749 300.442L778.502 300.315L784.508 302.536L794.857 307.313L794.919 307.342L794.985 307.352L798.935 308.01L804.582 309.847L807.619 311.301L807.691 311.335L807.771 311.345L809.143 311.522L806.126 312.224L806.005 312.253L805.911 312.335L800.723 316.856L799.574 317.858L801.094 317.731L802.039 317.652L801.624 319.936L801.582 320.168L801.733 320.348L803.839 322.848L809.939 332.528L809.986 332.602L810.055 332.656L812.449 334.518L812.544 334.592L812.661 334.615L816.784 335.413L816.881 335.431L816.977 335.413L820.143 334.779L826.114 337.505L826.578 337.717L826.78 337.25L827.907 334.657L831.655 336.359L832.27 337.819L830.35 337.403L829.664 336.374L829.326 335.866L828.894 336.298L825.112 340.079L823.533 339.628L822.982 339.47L822.901 340.038L822.502 342.832L822.477 343.002L822.563 343.151L826.841 350.606L825.496 350.765L819.903 347.588L816.981 342.541L816.872 342.474L811.282 339.094L809.351 334.975L809.285 334.833L809.147 334.754L805.424 332.626L805.359 332.589L805.286 332.572L799.788 331.323L799.688 330.221L799.674 330.054L799.56 329.93L792.91 322.616L792.88 322.583L792.845 322.556L786.462 317.635L786.384 317.576L786.29 317.55L784.033 316.922L781.254 313.889L780.224 311.7L780.136 311.513L779.941 311.443L775.154 309.714L775.044 309.675L774.927 309.687L770.468 310.197L764.626 305.878L763.614 303.223L763.578 303.128L763.507 303.054L759.916 299.33L759.838 299.249L759.731 299.209L755.88 297.764L756.59 294.523L758.593 295.382V290.456L758.022 290.537L757.078 290.672L757.747 289.25L757.971 288.773L757.484 288.574L756.583 288.205L759.445 288.595ZM753.717 284.992L756.246 288.027L756.297 288.088L754.558 287.378L754.474 287.344L754.384 287.341L750.347 287.227L750.702 286.451L750.76 286.322L750.743 286.181L750.553 284.675L753.717 284.992Z" stroke="white"/>
<mask id="path-50-inside-4_43_3490" fill="white">
<path d="M874.468 336.252L873.404 333.326L874.069 336.651L874.468 336.252Z"/>
</mask>
<path d="M874.468 336.252L875.176 336.958L875.625 336.508L875.408 335.91L874.468 336.252ZM873.404 333.326L874.344 332.984L872.423 333.522L873.404 333.326ZM874.069 336.651L873.089 336.847L873.456 338.681L874.777 337.357L874.069 336.651ZM874.468 336.252L875.408 335.91L874.344 332.984L873.404 333.326L872.464 333.667L873.528 336.594L874.468 336.252ZM873.404 333.326L872.423 333.522L873.089 336.847L874.069 336.651L875.05 336.455L874.384 333.129L873.404 333.326ZM874.069 336.651L874.777 337.357L875.176 336.958L874.468 336.252L873.76 335.545L873.362 335.945L874.069 336.651Z" fill="white" mask="url(#path-50-inside-4_43_3490)"/>
<path d="M854.338 230.01L854.578 231.015L851.968 228.58L852 228.257L854.338 230.01Z" stroke="white"/>
<mask id="path-53-inside-5_43_3490" fill="white">
<path d="M840.42 195.538L837.361 189.553L833.504 185.43L832.44 185.962L828.051 182.637L826.987 179.046L826.721 173.593L829.78 171.066L824.194 170.933L819.273 168.539L817.411 166.544L815.149 160.027L815.416 156.702L817.145 156.037L817.943 152.845L815.017 148.456L811.692 149.52L807.968 149.387L805.308 148.323L800.121 143.668L799.456 139.944L797.86 141.008L797.195 138.614L798.392 137.151L800.121 139.811L803.579 137.683L802.249 134.757L795.333 133.826L794.136 136.885L786.954 134.225L786.555 132.23L784.161 129.703L779.905 132.895L781.9 135.023L778.841 137.683L776.979 137.284L771.127 132.496L767.935 125.314L765.275 125.713L765.541 124.25L762.615 124.383L761.551 122.521L759.423 121.856L759.023 119.595L757.162 119.462L759.157 116.403L757.96 113.876L762.349 112.812L760.62 109.62L759.423 109.753L758.093 105.497L756.497 102.837L756.63 100.576L764.078 104.3L763.812 102.438L759.423 96.8522L757.96 89.4042L759.556 82.0887L762.083 79.5624L766.605 78.6309L768.201 75.9713L764.61 74.6407L761.95 72.2469L761.817 69.7198L759.29 66.6611L758.891 63.8682L754.635 60.8087L755.3 59.2131L751.576 53.494L749.182 52.8291L750.512 51.366L748.384 48.9722L748.916 47.1101L745.724 41.5243L743.596 35.2728L741.601 32.6132L740.803 29.2879L739.207 31.0168L737.877 28.623L740.67 28.8888L741.468 24.367L743.729 19.047L741.867 16.2541L739.606 14.9243L736.015 17.0523L733.222 16.6532L730.695 20.7759L728.035 19.7119L723.912 20.2443L718.858 22.239L720.587 23.9679L717.794 26.8941L713.538 26.495L714.07 29.4212L715.666 31.0168L711.144 34.6079L712.607 27.559L709.814 29.5545L711.543 26.7608L713.804 25.6968L715.001 22.5048L713.139 15.4559L710.745 13.727L709.149 10.6683L703.031 8.54031L701.169 11.0674L697.179 11.3332L696.248 6.01321L693.854 5.21502L696.514 4.55012L698.509 5.74663L697.711 7.07722L704.494 4.55012L705.292 3.08702L705.159 -1.56807L702.898 -3.82858L705.159 -9.81424L708.484 -11.0108L710.08 -10.4792L712.74 -13.1388L711.942 -16.9956L717.262 -23.912L716.863 -28.3005L715.4 -31.4933L712.208 -29.232L711.011 -31.8916L710.346 -29.4978L712.74 -28.3005L710.479 -27.7689L707.287 -31.0942L699.706 -28.4338L701.435 -29.8969L700.77 -34.8178L698.509 -35.0836L699.041 -38.5422L695.849 -38.1431L693.854 -39.7387L693.455 -42L691.859 -41.8667L692.125 -39.4729L686.539 -32.1582L683.48 -29.7636L683.214 -24.4436L684.943 -25.1085L683.214 -21.784L683.746 -16.1982L684.81 -18.0597L688.401 -18.8578L689.864 -17.2622L690.928 -18.7253L693.455 -16.5966L690.396 -16.464L688.933 -13.5379L687.603 -14.8677L684.278 -13.4046L680.155 -13.5379L680.554 -11.809L676.564 -10.8782L674.968 -8.08535L674.17 -4.76006L672.441 -3.43026L668.717 1.49142L666.456 6.27902L663.796 7.07722L660.737 12.663L657.279 15.855L654.486 19.9777L655.018 20.6434L652.624 24.5003L649.166 32.4799L648.235 39.263L647.171 41.6568L648.235 42.9874L646.639 44.583L645.708 48.0407L643.314 53.8931L647.57 54.6913V57.6167L649.698 55.0896L653.555 54.1589L657.412 54.9571L659.141 57.75V61.2078L654.885 62.006L652.225 66.262L648.235 65.5971L645.176 67.0602L647.703 71.582L645.176 76.902L644.511 80.7589L641.053 83.5518L641.718 84.8824L640.122 90.734L641.053 94.0593L639.723 95.5224L644.112 96.9847L647.836 97.3838L651.826 101.374L647.038 97.9162L644.777 99.3793L638.393 97.3838L637.329 99.9109L633.605 101.507L629.748 98.182L625.625 97.9162L623.63 94.1918L624.295 98.182L621.768 99.246L617.246 103.236L613.256 110.95L611.793 118.132L611.926 120.925L608.867 126.245L606.473 127.708L606.739 125.713L603.015 125.979L600.754 127.575L601.153 129.703L598.626 128.24L597.695 131.299L595.567 129.703L593.306 132.895L591.843 130.235L593.971 129.969L593.04 127.708L589.582 127.841L585.459 130.9L582.666 134.757L585.725 141.806L585.592 145.663L583.331 144.732L584.927 142.205L582.267 135.821L578.676 142.205L578.144 144.998L576.548 141.407L578.543 140.609L581.735 136.087L576.415 139.013L565.376 149.387L561.785 151.249L566.041 152.18L565.642 154.574L563.115 157.633L565.376 161.357L566.972 159.229L568.568 162.155L574.287 164.416L572.558 167.608L569.234 167.076L565.509 173.194L570.43 171.465L571.228 172.662L561.652 175.455L559.79 179.046L559.524 182.105L556.598 183.967L553.805 184.1L549.416 183.036L553.007 190.484L554.736 195.139L553.539 198.065L546.89 197.533L530.663 189.686L536.781 190.617L537.18 187.425L534.121 186.095L532.658 187.425L532.791 183.302L530.929 181.573L528.402 184.632L530.663 179.977L527.604 179.445L523.88 180.376L523.082 178.647L519.624 180.376L518.693 183.169L517.23 182.105L515.634 183.568L509.782 183.435L509.915 186.095L508.053 185.829L509.383 189.952L511.511 191.282L512.309 195.272L509.782 195.139L509.516 196.868L505.393 199.395L500.738 200.858L495.152 201.124L492.891 197.001L489.566 198.73L482.251 200.592L480.522 203.119L476.931 205.779L478.926 207.109L478.527 208.705L476 206.976L476.266 204.981L473.739 201.922L472.276 205.114L467.887 204.582H462.966L462.301 208.04L463.498 208.439L466.956 206.444L467.089 206.71L467.355 207.242L464.695 211.232L462.035 211.099L462.833 212.961L460.173 214.823L458.444 217.35L453.39 218.547L453.656 221.34L451.661 224.665L452.459 217.217L454.055 216.951L454.72 212.562L457.779 211.365L459.508 205.779L461.636 202.454L461.237 200.725L465.892 191.681L467.621 189.287L468.286 185.031L467.222 182.238L464.296 182.504L462.434 179.711L466.956 181.307L466.292 177.982L465.227 178.115L461.902 172.795L460.572 173.726L458.577 170.933L455.651 171.997L454.055 170.667L451.395 172.529L449.001 172.396L445.277 173.992L445.809 176.519L441.819 178.115L443.282 172.396L440.888 171.066L438.627 172.529L437.829 171.199L433.706 171.997L435.834 170.667L438.228 167.608L436.499 165.613L435.169 166.278L431.046 164.815L429.184 166.278L426.923 170.135L424.529 176.253L425.992 178.647L425.327 181.706L421.604 183.302L419.608 182.903L422.135 185.696L423.199 188.489L419.741 187.026L417.347 188.356V190.085L415.086 189.154L411.495 191.282L411.096 188.755L413.756 188.223L413.889 185.829L410.697 186.893L407.638 189.553L402.318 190.484L404.18 193.144L392.742 197.001L390.082 198.597L383.166 205.912L383.033 204.183L380.506 205.779L383.033 206.178L381.837 207.774L380.107 206.444L378.378 208.439L380.905 209.503L381.837 211.365L379.309 211.232L379.043 209.104L376.25 209.902L378.777 210.7L379.043 213.227L381.703 214.424L383.033 218.547L384.363 219.079L382.634 221.739L381.437 218.015L377.048 218.68L376.383 220.01L374.122 219.212L369.201 220.143L363.748 219.345L359.492 219.744L356.965 222.803L358.162 227.99L356.965 232.512L358.428 235.305L362.152 236.635L361.886 239.162L363.881 241.822L366.142 242.886L366.941 245.945L364.413 250.201L365.876 260.176L364.413 261.905L362.152 261.639L362.817 264.831L360.822 262.304L363.881 260.442L364.147 255.92L362.817 253.26L360.822 255.388L360.423 257.915L358.827 258.181L360.557 255.521L360.024 252.595L360.955 249.27L364.28 248.073L365.743 244.881L364.014 243.285L359.359 243.817L351.512 233.709L348.054 233.044L346.591 232.778L343.266 236.103L345.261 235.837V238.896L343 239.162L341.138 235.97L337.015 236.768L337.281 241.29L341.936 245.945L344.33 246.743L344.197 251.398L342.468 250.201L341.936 247.807L335.02 245.014L332.36 242.088L334.089 240.758L333.69 237.965L334.488 235.305L337.015 232.246L337.813 228.522L336.616 224L335.286 224.266L336.084 220.941L333.557 221.074L335.685 226.394L335.02 230.517L333.424 233.31L327.173 235.172L326.375 237.167L323.715 239.561L325.178 242.088L325.71 251.93L322.119 255.255L319.592 260.309L320.124 264.831L318.662 267.358L324.513 270.018L326.774 268.555L331.961 271.614L332.36 273.21L335.552 275.604L334.887 278.796L336.217 283.584L332.759 284.648L331.562 289.303L334.355 291.032L338.478 292.495L333.69 292.362L329.833 288.638L332.227 283.185L331.429 282.387L332.892 279.594L330.498 276.003L329.833 272.811L324.114 272.944L320.124 274.274L318.528 277.732L319.592 280.791L319.326 283.85L318.129 286.776L312.676 290.367L311.612 293.825L309.086 295.554L303.366 296.485L301.77 299.544L299.376 300.209L295.652 297.283L291.662 296.219L286.741 290.633L286.874 288.106L291.13 289.702L294.056 294.756L298.977 294.49L299.642 291.83L304.164 289.436L307.755 284.515L310.681 284.116L312.144 278.131L315.735 275.471L312.543 268.688L314.139 264.565L314.937 260.176L316.4 258.048L316.932 252.595L318.927 251.132L320.922 245.546L321.055 242.753L319.592 239.827L319.459 236.635L321.188 236.103L322.784 233.177L326.242 228.921L327.705 223.601L323.848 219.611L316.666 217.483V216.286L313.74 218.813L307.888 228.256L304.43 231.182L299.376 232.246L294.987 237.167L298.312 238.231L296.318 243.019L294.721 245.014L294.322 247.541L292.726 247.275L290.332 251.664L290.465 254.989L292.726 252.196L295.12 255.122L294.322 256.984L294.588 262.038L297.115 263.368L294.987 266.693L290.066 270.816L290.598 269.087L287.539 261.639L288.071 261.107L283.283 255.654L283.948 255.122L281.421 252.196L279.16 247.275L274.106 241.955L267.456 236.901L265.86 238.497L263.2 238.364L262.402 244.083L263.466 245.147L262.269 247.275L259.21 248.605L256.018 247.541L255.486 250.201L253.491 250.866L251.629 248.738L252.826 246.344L255.22 245.546L254.555 241.689L250.033 241.157L245.378 242.487L240.591 237.965H234.738L232.876 239.96L231.812 236.901L229.684 237.034L227.024 234.64L228.753 233.975L229.95 235.837L231.945 231.847L234.472 230.783L232.743 228.389L226.226 228.256L226.758 230.916L223.832 230.118L225.694 228.256L219.044 226.926L218.778 226.128L211.33 226.394L207.34 224.931L205.877 225.995L200.956 224.399L200.424 225.862L197.498 227.325L195.902 229.32L190.05 226.926L187.922 223.734L189.385 220.409L188.454 216.685L190.582 215.089L193.508 214.424L199.36 218.015L201.222 214.823L201.887 210.035L200.557 206.976L196.168 202.454L194.572 199.528L194.44 205.912L189.917 209.503L184.597 212.296L183.134 213.759L184.065 216.286L183.267 218.547L181.006 220.675L177.681 222.005L174.09 224.133L174.489 218.015L171.43 215.754L171.962 214.025L175.154 212.695L168.238 213.892L164.248 213.759L161.588 212.163H157.332L154.539 211.365L152.145 212.429L150.017 219.079L148.421 220.143L145.761 218.68H143.368L142.969 214.424L141.106 209.636L141.505 206.843L140.707 202.587L137.914 203.385L136.318 202.055L133.393 208.971L135.653 211.232V213.493L132.062 216.286L128.205 214.158L127.141 209.37L128.338 203.784L126.476 201.922L127.141 197.001L128.471 197.533L132.329 193.809L134.988 196.469L134.589 198.597L136.584 197.001L132.727 193.144L134.457 189.686L139.377 189.42L141.24 187.824L142.436 184.632L141.771 179.445L143.5 178.913L143.101 175.854H144.033L142.969 175.189L142.569 174.524V174.391L144.564 174.923L143.899 173.061L146.559 168.007L147.623 170.667L146.559 171.598L145.761 175.987L147.357 179.312L146.692 181.307L148.421 182.504L148.155 186.361L150.017 191.681L151.48 193.676L152.81 199.528L154.539 202.454L157.997 205.114L164.381 207.375L170.632 206.976L173.159 205.912L174.622 202.986L178.479 198.996L178.346 192.612L177.415 190.351L177.681 184.499L176.883 183.967L178.213 178.381L177.947 168.539L174.622 160.426L174.223 157.367L171.829 155.372H173.558L172.627 153.111L173.292 150.717L174.223 153.909L175.686 154.308L176.218 148.19L174.223 149.254L171.962 147.658L171.696 144.599L168.77 146.461L168.505 143.668L164.913 143.934L162.519 141.939L160.524 142.604L156.401 140.742V142.471L152.145 143.003L149.219 145.796L149.352 149.254L146.692 154.707L144.564 155.372L136.85 154.973L133.525 158.431L129.269 164.15L124.88 167.874L123.55 166.145L119.294 169.47L116.369 169.603L114.772 171.731L115.437 173.194L111.181 175.455L110.782 179.179L108.122 180.376L103.866 179.312L102.403 183.568L101.738 189.021L99.7428 192.612L94.4229 193.543L89.1029 192.479L80.0593 191.548L75.4042 190.484L71.6798 189.154L62.7695 186.627L63.966 189.021L67.4246 190.617L64.631 192.213L64.7643 190.218L62.902 192.479L63.8335 193.543L62.6362 195.671L63.567 198.198L65.03 200.725L64.3651 203.784L62.7695 204.05L62.2371 201.124L61.0398 197.799L58.5135 197.666L57.4495 194.873L54.7892 195.139L55.1883 192.612L51.7304 194.075L50.6664 196.602L48.2718 196.469L49.2034 194.873L45.3465 195.272L39.8931 198.597L36.4354 198.198L35.7705 199.395L37.2335 201.257L36.0362 203.518L33.7749 203.119L31.9136 200.725L28.1892 201.124L27.2585 205.646L21.6719 206.843L22.6034 207.641L20.0763 211.897L15.4212 215.754L16.8843 217.749L16.0861 219.744L17.815 220.675L18.3474 223.468L15.8203 225.596L18.879 227.325L20.3421 229.453L20.0763 235.704L16.6185 236.768L14.7563 239.827L11.2985 239.694L11.1652 243.418L7.70746 247.009L7.97322 251.398L4.91456 252.595L6.51016 254.723L7.04254 257.915L5.44617 258.979L5.31286 261.506L1.58928 260.974L-0.937866 259.378L-1.33693 256.319L-2.53423 254.058H-5.19383L-5.85875 256.984L-11.0455 260.708L-12.5086 264.831L-10.5139 266.959L-7.58767 266.161L-5.72544 270.683L-3.33161 271.747L-2.53423 274.673L-0.672012 276.003L-1.33693 279.062L-3.33161 280.791V283.584L-5.85875 282.786L-8.25259 286.111H-9.98141L-8.12004 290.633L-6.12451 293.027L-7.45436 295.82L-9.44979 299.145L-11.4446 300.342V303.002L-8.65166 305.396L-9.18403 307.524L-8.25259 310.317L-5.19383 311.647L-1.736 314.573L-3.46492 319.095L-3.59746 322.42H-1.20363L0.525288 329.469L2.38741 330.799L1.98835 332.794L3.3181 334.39L3.05233 337.449L5.18032 339.178L2.2541 341.971H-0.937866L-2.53423 340.641V343.7L-4.92807 342.769L-7.58767 348.488L-9.84895 348.621L-12.9076 350.217L-18.2277 343.434L-20.3556 344.099L-23.2819 341.838L-27.0062 343.035L-28.7351 344.498L-21.1538 351.015L-23.4151 352.877L-24.3459 351.281L-28.336 349.685L-34.1876 346.626L-35.5174 344.099L-37.1138 348.089L-36.0497 349.153L-35.9165 354.34L-37.5129 351.813L-40.04 350.483L-43.6311 351.547L-45.7591 350.483L-48.2862 353.941L-49.0836 351.813L-52.6746 349.685L-51.6106 349.153L-52.4089 346.094L-56 345.828L-54.5368 353.276L-55.7341 356.468L-53.2071 359.527L-54.0045 363.916L-52.1431 367.773L-51.4782 372.029L-52.0098 382.137L-51.8765 385.595L-48.552 385.994L-46.0249 389.984L-45.2267 393.575L-43.0987 396.634L-42.9654 398.895L-39.7734 403.151L-37.3796 404.88L-36.5814 407.407L-34.0551 410.732L-34.3209 413.126L-33.2569 415.387L-31.528 419.51L-33.1236 420.308L-32.1929 422.17L-28.4685 423.367L-25.5431 425.761V427.756L-23.8142 427.224L-22.7494 429.352L-22.0846 432.81L-19.6907 436.002L-22.6169 437.199L-21.8187 441.189L-17.1637 448.371L-17.5627 456.883L-13.5725 461.937L-10.1147 461.006L-6.78944 462.203L-3.06585 461.405L-2.80009 449.967L-1.86855 446.376L-2.40092 443.45L1.32342 439.859L4.51539 437.997L8.23907 437.598L5.04701 436.667L1.32342 439.061L3.71726 436.401L5.44617 431.746L3.3181 426.027L5.18032 424.298L7.17499 424.564L11.1652 424.83L17.815 422.436L18.0816 421.638L20.0763 421.239L24.3323 424.564L28.9874 424.963L29.519 427.49L31.2479 424.431L34.0408 425.894H36.4354L33.5092 418.18L34.9722 417.914L35.903 419.909L38.2975 420.574L38.6959 415.652L39.8931 411.929L39.4941 405.678L36.7012 403.284L35.7705 401.422L34.0408 402.22L33.5092 399.56L36.967 395.304L34.0408 390.383L37.1003 389.053L44.1492 386.925L43.6176 384.132L48.4052 380.674L52.927 381.206L54.6559 379.078L56.3856 378.945L58.1145 379.477L58.3802 383.999L57.4495 388.255L58.2469 389.718L62.902 390.649L64.2319 386.659L65.9616 384.265L72.8771 385.994L75.0051 383.733L77.2664 385.728L82.7189 386.792L86.5758 385.196L87.7731 386.659L88.8371 385.063L91.7633 389.452L90.1669 390.516L93.4922 392.91L95.3543 391.58L99.078 393.176L98.1472 396.767L100.94 399.294L103.999 400.757L104.93 403.417L104.265 405.146L105.729 406.875L105.861 410.2L107.191 412.86L104.93 414.589L106.793 416.185L109.585 411.929L111.447 415.254L111.713 418.712L113.309 421.771L117.565 421.904L119.561 420.574H123.018L127.806 423.367V426.293L130.333 427.756L132.329 425.894L134.589 428.155L136.451 427.889L137.781 430.549L136.584 432.012L138.047 435.603L141.505 438.263L141.24 440.258L143.368 440.79L147.224 438.529L148.288 441.455L151.214 443.583L156.933 444.913L160.125 441.588L161.854 441.056L161.322 438.529L158.396 436.135L158.529 434.406L154.539 431.347L156.135 430.682L154.14 426.692L159.726 427.756L163.45 427.224L162.785 422.303L167.041 420.973L170.499 421.771L171.164 422.835L174.888 424.298L175.287 422.702L170.1 417.781L172.494 415.387L170.898 413.259L173.292 412.062L174.356 409.934L176.883 412.195L183.932 414.855L190.183 416.185L195.504 416.983L202.685 418.978L204.414 420.707L205.478 418.579L207.606 418.313L211.197 420.175L215.054 420.574L224.098 422.436L228.487 422.835L230.349 420.441L232.743 421.372L234.339 420.042L236.201 419.643L237.398 421.505L240.989 422.702L243.915 426.426L246.442 425.362L249.102 426.16L249.368 429.086L248.304 432.677L249.368 433.608L247.905 438.396L246.309 437.731L246.975 440.79L248.437 439.992L251.097 441.854L251.895 440.657L253.89 442.519L255.619 440.79L255.752 446.243L257.88 443.982L260.407 444.913L260.673 446.775L263.998 448.105L260.806 450.898L261.471 453.957L266.126 452.76L269.319 455.686L270.249 453.292L273.175 452.361L275.17 453.159L281.155 450.898L290.997 448.903L288.603 452.494L286.475 451.696L287.14 454.223L295.254 463.932L296.318 466.193L304.43 488.537L307.356 497.581L311.479 496.251L311.878 493.325L314.139 492.527L317.73 495.054L316.666 497.182L319.592 497.581L319.726 500.374L322.385 500.108L328.37 501.704L331.03 499.842L336.882 499.443L340.074 501.305L342.069 504.364L343 509.019L349.118 511.811L351.113 517.93L354.039 517.664L359.093 519.925L363.083 516.201L364.546 517.398L362.817 518.595L364.812 519.659L366.408 522.851L369.733 525.245L374.654 524.181L376.782 520.989L380.772 520.59L382.9 521.255L390.082 518.063L389.683 515.669L392.742 515.004L393.407 513.541L399.126 511.147L401.786 509.418L405.244 508.886L408.037 506.093L411.495 505.96L412.692 504.098L415.751 505.96L418.412 504.63L418.943 506.359L429.583 506.491L430.78 510.216L433.44 512.743L435.967 512.211L437.43 513.275L441.42 513.541L444.213 511.811L448.868 512.876L454.055 512.211L457.114 513.807L463.631 508.753L464.429 503.167L461.902 501.97L459.508 497.979L460.838 492.128L462.168 491.862L462.7 488.803L464.961 487.739L466.956 483.217L470.547 484.946L473.473 485.079L476.532 486.409L480.788 485.744L488.635 487.606L495.551 487.739L495.817 490.399L498.743 496.65L501.27 497.714L511.245 498.778L515.634 497.315L516.964 495.32L524.146 491.197L529.865 490.532L532.392 491.197L535.717 489.734L541.569 492.128L546.091 491.064L547.953 490.931L548.884 493.99L555.135 496.251L560.322 494.123L569.632 493.192L570.829 491.729H574.287L578.41 487.207L583.863 484.414L586.656 481.754L589.316 481.222L591.444 479.094L591.71 475.902L593.706 472.443L598.094 467.124L601.951 465.927L608.601 467.257L611.66 465.927L614.719 462.735L624.96 462.868L629.482 461.937L631.876 458.612L633.871 453.558L637.196 451.43L638.26 449.302L637.063 446.509L635.201 447.041L635.733 441.854L634.935 439.992L635.6 437.066L634.802 429.484L636.664 425.096L636.797 421.904L634.27 420.175L633.738 417.781L631.078 418.047L628.684 419.909L627.62 418.313L628.684 416.185L630.28 409.402L632.541 408.072L637.196 403.018L638.925 401.156L642.649 399.028L644.644 396.368L647.038 394.772L652.491 393.841L654.619 394.506L659.54 391.447L665.126 390.915L676.431 395.171L676.963 397.166L681.352 399.826L684.278 400.491L686.938 403.683L691.593 404.747L695.051 408.604L697.578 408.338L699.972 412.461L703.829 412.86L706.09 411.929L710.745 407.806L711.144 408.87L714.469 408.205L716.863 405.412L722.449 406.476L726.173 406.077L728.7 403.816L729.897 406.476L734.153 407.54L735.483 410.998L740.67 412.195L742.931 409.269L744.66 409.003L750.778 402.752L749.847 399.693L751.443 395.703L754.103 393.575L754.502 390.516L757.694 385.196L760.753 384.132L761.684 386.925L765.807 388.388L766.339 392.644L765.541 396.235L769.531 402.619L769.93 404.88L772.058 406.476L771.526 408.87L772.989 410.865L772.457 412.195L774.319 415.387L773.388 418.579L775.782 421.372L774.319 423.766L775.649 428.554L774.984 431.613L770.462 431.214L769.664 429.219L766.871 427.889L764.742 428.155V434.007L762.083 438.13L764.344 438.795L770.728 443.051L774.053 448.371L776.048 448.903L777.91 455.42L776.048 456.75L774.186 460.341L779.905 462.336L779.373 459.011L776.713 459.41L781.368 456.085L780.437 452.228L781.102 447.573L780.437 446.376L782.565 445.312L782.432 448.504L783.496 447.041L784.294 442.519L787.619 446.376L790.811 443.051L792.54 443.849L793.338 441.987H795.599L797.328 438.263L799.855 434.938L800.121 431.347L801.85 427.224L803.446 420.973L802.648 418.978L803.18 415.786L802.116 415.121L801.185 408.338L802.249 406.077L801.185 401.688L801.584 399.56L800.786 395.171L801.451 391.447L801.185 384.398L800.121 377.881L796.131 368.837L795.599 362.187L793.471 357.399L792.806 345.961L789.481 342.104L784.693 334.656L781.102 333.459L780.703 330.4L779.107 330.533L774.984 328.139L772.457 324.947L771.526 322.287L769.132 320.292L769.265 318.297L767.536 316.834L768.068 315.105L767.27 310.982L764.477 308.987L760.753 309.12L760.354 307.125L755.832 304.997V301.805H750.512L746.921 303.401L742.798 303.534L741.202 302.204L736.68 303.002L735.483 306.46L731.094 309.253L734.419 311.78L736.946 316.834L735.35 318.164L734.818 314.041L733.222 312.711L733.887 316.302L733.488 320.026L730.828 323.883L729.498 317.898L726.04 319.76L725.508 312.711L724.444 314.839L723.779 320.425L726.04 320.026L727.104 322.952L724.843 325.346L718.858 317.765L713.006 324.282L709.016 325.745L707.287 324.415V321.09L708.351 318.43L707.952 313.376L708.75 301.273L708.351 297.283L709.282 295.155L707.819 294.889L706.356 288.239L706.09 282.919L707.021 277.998L705.957 275.338L706.755 271.215L704.228 267.624L703.43 264.831L704.228 259.378L702.1 251.797L703.563 245.28L705.292 243.684L705.957 240.625L710.745 235.039L713.937 229.32L715.267 231.315L717.794 228.921L715.267 226.394L717.927 224.532L721.651 221.606L721.385 218.414L723.247 215.754L724.577 216.286L726.572 213.36L724.577 213.892L723.114 212.296L724.577 210.168L723.114 209.769L723.38 206.444L727.902 202.321L729.498 202.72L731.227 200.592L730.03 199.794L731.227 196.735L735.483 196.469L738.01 193.543L737.345 197.4L735.483 201.656L738.941 201.523L740.936 197.4L740.005 194.474L743.33 191.681L741.202 187.159L745.325 183.967L744.793 180.376L747.32 176.253L743.064 175.987L740.271 181.307L736.68 178.514L737.212 176.785L735.217 175.322L733.222 171.598L731.493 164.416L729.099 161.623L728.301 157.234L724.711 155.505L723.646 149.786L725.641 146.461L725.109 144.998L726.705 138.215H729.631L730.03 135.954L728.301 132.23L732.69 134.225L735.217 138.614L737.345 137.816L738.941 139.678L739.074 135.422L740.936 137.949L743.862 139.146L738.276 124.782L735.882 120.526V118.664L738.675 117.866L736.946 115.472L735.084 117.201L732.291 115.073H730.296L729.498 113.078L727.104 112.945L727.503 104.699L731.892 101.906L730.03 105.763L731.626 108.822L738.409 111.216L741.202 113.876L742.398 112.546L745.591 117.068L747.054 115.605L747.32 121.59L748.384 122.787L749.448 128.772L751.842 129.836L752.773 132.629L756.63 139.146L756.497 141.274L758.492 143.269L759.822 146.993L762.482 148.988L766.206 155.638L768.6 163.884L767.27 165.879L769.132 168.539L767.137 171.465L767.536 173.061L772.058 173.46L775.383 177.45L776.713 183.036L783.762 189.154L791.742 193.809L801.85 196.868L808.766 198.198L819.672 201.523L828.716 202.587L839.223 206.311L840.952 205.247L844.41 206.71L840.42 195.538Z"/>
</mask>
<path d="M840.42 195.538L837.361 189.553L833.504 185.43L832.44 185.962L828.051 182.637L826.987 179.046L826.721 173.593L829.78 171.066L824.194 170.933L819.273 168.539L817.411 166.544L815.149 160.027L815.416 156.702L817.145 156.037L817.943 152.845L815.017 148.456L811.692 149.52L807.968 149.387L805.308 148.323L800.121 143.668L799.456 139.944L797.86 141.008L797.195 138.614L798.392 137.151L800.121 139.811L803.579 137.683L802.249 134.757L795.333 133.826L794.136 136.885L786.954 134.225L786.555 132.23L784.161 129.703L779.905 132.895L781.9 135.023L778.841 137.683L776.979 137.284L771.127 132.496L767.935 125.314L765.275 125.713L765.541 124.25L762.615 124.383L761.551 122.521L759.423 121.856L759.023 119.595L757.162 119.462L759.157 116.403L757.96 113.876L762.349 112.812L760.62 109.62L759.423 109.753L758.093 105.497L756.497 102.837L756.63 100.576L764.078 104.3L763.812 102.438L759.423 96.8522L757.96 89.4042L759.556 82.0887L762.083 79.5624L766.605 78.6309L768.201 75.9713L764.61 74.6407L761.95 72.2469L761.817 69.7198L759.29 66.6611L758.891 63.8682L754.635 60.8087L755.3 59.2131L751.576 53.494L749.182 52.8291L750.512 51.366L748.384 48.9722L748.916 47.1101L745.724 41.5243L743.596 35.2728L741.601 32.6132L740.803 29.2879L739.207 31.0168L737.877 28.623L740.67 28.8888L741.468 24.367L743.729 19.047L741.867 16.2541L739.606 14.9243L736.015 17.0523L733.222 16.6532L730.695 20.7759L728.035 19.7119L723.912 20.2443L718.858 22.239L720.587 23.9679L717.794 26.8941L713.538 26.495L714.07 29.4212L715.666 31.0168L711.144 34.6079L712.607 27.559L709.814 29.5545L711.543 26.7608L713.804 25.6968L715.001 22.5048L713.139 15.4559L710.745 13.727L709.149 10.6683L703.031 8.54031L701.169 11.0674L697.179 11.3332L696.248 6.01321L693.854 5.21502L696.514 4.55012L698.509 5.74663L697.711 7.07722L704.494 4.55012L705.292 3.08702L705.159 -1.56807L702.898 -3.82858L705.159 -9.81424L708.484 -11.0108L710.08 -10.4792L712.74 -13.1388L711.942 -16.9956L717.262 -23.912L716.863 -28.3005L715.4 -31.4933L712.208 -29.232L711.011 -31.8916L710.346 -29.4978L712.74 -28.3005L710.479 -27.7689L707.287 -31.0942L699.706 -28.4338L701.435 -29.8969L700.77 -34.8178L698.509 -35.0836L699.041 -38.5422L695.849 -38.1431L693.854 -39.7387L693.455 -42L691.859 -41.8667L692.125 -39.4729L686.539 -32.1582L683.48 -29.7636L683.214 -24.4436L684.943 -25.1085L683.214 -21.784L683.746 -16.1982L684.81 -18.0597L688.401 -18.8578L689.864 -17.2622L690.928 -18.7253L693.455 -16.5966L690.396 -16.464L688.933 -13.5379L687.603 -14.8677L684.278 -13.4046L680.155 -13.5379L680.554 -11.809L676.564 -10.8782L674.968 -8.08535L674.17 -4.76006L672.441 -3.43026L668.717 1.49142L666.456 6.27902L663.796 7.07722L660.737 12.663L657.279 15.855L654.486 19.9777L655.018 20.6434L652.624 24.5003L649.166 32.4799L648.235 39.263L647.171 41.6568L648.235 42.9874L646.639 44.583L645.708 48.0407L643.314 53.8931L647.57 54.6913V57.6167L649.698 55.0896L653.555 54.1589L657.412 54.9571L659.141 57.75V61.2078L654.885 62.006L652.225 66.262L648.235 65.5971L645.176 67.0602L647.703 71.582L645.176 76.902L644.511 80.7589L641.053 83.5518L641.718 84.8824L640.122 90.734L641.053 94.0593L639.723 95.5224L644.112 96.9847L647.836 97.3838L651.826 101.374L647.038 97.9162L644.777 99.3793L638.393 97.3838L637.329 99.9109L633.605 101.507L629.748 98.182L625.625 97.9162L623.63 94.1918L624.295 98.182L621.768 99.246L617.246 103.236L613.256 110.95L611.793 118.132L611.926 120.925L608.867 126.245L606.473 127.708L606.739 125.713L603.015 125.979L600.754 127.575L601.153 129.703L598.626 128.24L597.695 131.299L595.567 129.703L593.306 132.895L591.843 130.235L593.971 129.969L593.04 127.708L589.582 127.841L585.459 130.9L582.666 134.757L585.725 141.806L585.592 145.663L583.331 144.732L584.927 142.205L582.267 135.821L578.676 142.205L578.144 144.998L576.548 141.407L578.543 140.609L581.735 136.087L576.415 139.013L565.376 149.387L561.785 151.249L566.041 152.18L565.642 154.574L563.115 157.633L565.376 161.357L566.972 159.229L568.568 162.155L574.287 164.416L572.558 167.608L569.234 167.076L565.509 173.194L570.43 171.465L571.228 172.662L561.652 175.455L559.79 179.046L559.524 182.105L556.598 183.967L553.805 184.1L549.416 183.036L553.007 190.484L554.736 195.139L553.539 198.065L546.89 197.533L530.663 189.686L536.781 190.617L537.18 187.425L534.121 186.095L532.658 187.425L532.791 183.302L530.929 181.573L528.402 184.632L530.663 179.977L527.604 179.445L523.88 180.376L523.082 178.647L519.624 180.376L518.693 183.169L517.23 182.105L515.634 183.568L509.782 183.435L509.915 186.095L508.053 185.829L509.383 189.952L511.511 191.282L512.309 195.272L509.782 195.139L509.516 196.868L505.393 199.395L500.738 200.858L495.152 201.124L492.891 197.001L489.566 198.73L482.251 200.592L480.522 203.119L476.931 205.779L478.926 207.109L478.527 208.705L476 206.976L476.266 204.981L473.739 201.922L472.276 205.114L467.887 204.582H462.966L462.301 208.04L463.498 208.439L466.956 206.444L467.089 206.71L467.355 207.242L464.695 211.232L462.035 211.099L462.833 212.961L460.173 214.823L458.444 217.35L453.39 218.547L453.656 221.34L451.661 224.665L452.459 217.217L454.055 216.951L454.72 212.562L457.779 211.365L459.508 205.779L461.636 202.454L461.237 200.725L465.892 191.681L467.621 189.287L468.286 185.031L467.222 182.238L464.296 182.504L462.434 179.711L466.956 181.307L466.292 177.982L465.227 178.115L461.902 172.795L460.572 173.726L458.577 170.933L455.651 171.997L454.055 170.667L451.395 172.529L449.001 172.396L445.277 173.992L445.809 176.519L441.819 178.115L443.282 172.396L440.888 171.066L438.627 172.529L437.829 171.199L433.706 171.997L435.834 170.667L438.228 167.608L436.499 165.613L435.169 166.278L431.046 164.815L429.184 166.278L426.923 170.135L424.529 176.253L425.992 178.647L425.327 181.706L421.604 183.302L419.608 182.903L422.135 185.696L423.199 188.489L419.741 187.026L417.347 188.356V190.085L415.086 189.154L411.495 191.282L411.096 188.755L413.756 188.223L413.889 185.829L410.697 186.893L407.638 189.553L402.318 190.484L404.18 193.144L392.742 197.001L390.082 198.597L383.166 205.912L383.033 204.183L380.506 205.779L383.033 206.178L381.837 207.774L380.107 206.444L378.378 208.439L380.905 209.503L381.837 211.365L379.309 211.232L379.043 209.104L376.25 209.902L378.777 210.7L379.043 213.227L381.703 214.424L383.033 218.547L384.363 219.079L382.634 221.739L381.437 218.015L377.048 218.68L376.383 220.01L374.122 219.212L369.201 220.143L363.748 219.345L359.492 219.744L356.965 222.803L358.162 227.99L356.965 232.512L358.428 235.305L362.152 236.635L361.886 239.162L363.881 241.822L366.142 242.886L366.941 245.945L364.413 250.201L365.876 260.176L364.413 261.905L362.152 261.639L362.817 264.831L360.822 262.304L363.881 260.442L364.147 255.92L362.817 253.26L360.822 255.388L360.423 257.915L358.827 258.181L360.557 255.521L360.024 252.595L360.955 249.27L364.28 248.073L365.743 244.881L364.014 243.285L359.359 243.817L351.512 233.709L348.054 233.044L346.591 232.778L343.266 236.103L345.261 235.837V238.896L343 239.162L341.138 235.97L337.015 236.768L337.281 241.29L341.936 245.945L344.33 246.743L344.197 251.398L342.468 250.201L341.936 247.807L335.02 245.014L332.36 242.088L334.089 240.758L333.69 237.965L334.488 235.305L337.015 232.246L337.813 228.522L336.616 224L335.286 224.266L336.084 220.941L333.557 221.074L335.685 226.394L335.02 230.517L333.424 233.31L327.173 235.172L326.375 237.167L323.715 239.561L325.178 242.088L325.71 251.93L322.119 255.255L319.592 260.309L320.124 264.831L318.662 267.358L324.513 270.018L326.774 268.555L331.961 271.614L332.36 273.21L335.552 275.604L334.887 278.796L336.217 283.584L332.759 284.648L331.562 289.303L334.355 291.032L338.478 292.495L333.69 292.362L329.833 288.638L332.227 283.185L331.429 282.387L332.892 279.594L330.498 276.003L329.833 272.811L324.114 272.944L320.124 274.274L318.528 277.732L319.592 280.791L319.326 283.85L318.129 286.776L312.676 290.367L311.612 293.825L309.086 295.554L303.366 296.485L301.77 299.544L299.376 300.209L295.652 297.283L291.662 296.219L286.741 290.633L286.874 288.106L291.13 289.702L294.056 294.756L298.977 294.49L299.642 291.83L304.164 289.436L307.755 284.515L310.681 284.116L312.144 278.131L315.735 275.471L312.543 268.688L314.139 264.565L314.937 260.176L316.4 258.048L316.932 252.595L318.927 251.132L320.922 245.546L321.055 242.753L319.592 239.827L319.459 236.635L321.188 236.103L322.784 233.177L326.242 228.921L327.705 223.601L323.848 219.611L316.666 217.483V216.286L313.74 218.813L307.888 228.256L304.43 231.182L299.376 232.246L294.987 237.167L298.312 238.231L296.318 243.019L294.721 245.014L294.322 247.541L292.726 247.275L290.332 251.664L290.465 254.989L292.726 252.196L295.12 255.122L294.322 256.984L294.588 262.038L297.115 263.368L294.987 266.693L290.066 270.816L290.598 269.087L287.539 261.639L288.071 261.107L283.283 255.654L283.948 255.122L281.421 252.196L279.16 247.275L274.106 241.955L267.456 236.901L265.86 238.497L263.2 238.364L262.402 244.083L263.466 245.147L262.269 247.275L259.21 248.605L256.018 247.541L255.486 250.201L253.491 250.866L251.629 248.738L252.826 246.344L255.22 245.546L254.555 241.689L250.033 241.157L245.378 242.487L240.591 237.965H234.738L232.876 239.96L231.812 236.901L229.684 237.034L227.024 234.64L228.753 233.975L229.95 235.837L231.945 231.847L234.472 230.783L232.743 228.389L226.226 228.256L226.758 230.916L223.832 230.118L225.694 228.256L219.044 226.926L218.778 226.128L211.33 226.394L207.34 224.931L205.877 225.995L200.956 224.399L200.424 225.862L197.498 227.325L195.902 229.32L190.05 226.926L187.922 223.734L189.385 220.409L188.454 216.685L190.582 215.089L193.508 214.424L199.36 218.015L201.222 214.823L201.887 210.035L200.557 206.976L196.168 202.454L194.572 199.528L194.44 205.912L189.917 209.503L184.597 212.296L183.134 213.759L184.065 216.286L183.267 218.547L181.006 220.675L177.681 222.005L174.09 224.133L174.489 218.015L171.43 215.754L171.962 214.025L175.154 212.695L168.238 213.892L164.248 213.759L161.588 212.163H157.332L154.539 211.365L152.145 212.429L150.017 219.079L148.421 220.143L145.761 218.68H143.368L142.969 214.424L141.106 209.636L141.505 206.843L140.707 202.587L137.914 203.385L136.318 202.055L133.393 208.971L135.653 211.232V213.493L132.062 216.286L128.205 214.158L127.141 209.37L128.338 203.784L126.476 201.922L127.141 197.001L128.471 197.533L132.329 193.809L134.988 196.469L134.589 198.597L136.584 197.001L132.727 193.144L134.457 189.686L139.377 189.42L141.24 187.824L142.436 184.632L141.771 179.445L143.5 178.913L143.101 175.854H144.033L142.969 175.189L142.569 174.524V174.391L144.564 174.923L143.899 173.061L146.559 168.007L147.623 170.667L146.559 171.598L145.761 175.987L147.357 179.312L146.692 181.307L148.421 182.504L148.155 186.361L150.017 191.681L151.48 193.676L152.81 199.528L154.539 202.454L157.997 205.114L164.381 207.375L170.632 206.976L173.159 205.912L174.622 202.986L178.479 198.996L178.346 192.612L177.415 190.351L177.681 184.499L176.883 183.967L178.213 178.381L177.947 168.539L174.622 160.426L174.223 157.367L171.829 155.372H173.558L172.627 153.111L173.292 150.717L174.223 153.909L175.686 154.308L176.218 148.19L174.223 149.254L171.962 147.658L171.696 144.599L168.77 146.461L168.505 143.668L164.913 143.934L162.519 141.939L160.524 142.604L156.401 140.742V142.471L152.145 143.003L149.219 145.796L149.352 149.254L146.692 154.707L144.564 155.372L136.85 154.973L133.525 158.431L129.269 164.15L124.88 167.874L123.55 166.145L119.294 169.47L116.369 169.603L114.772 171.731L115.437 173.194L111.181 175.455L110.782 179.179L108.122 180.376L103.866 179.312L102.403 183.568L101.738 189.021L99.7428 192.612L94.4229 193.543L89.1029 192.479L80.0593 191.548L75.4042 190.484L71.6798 189.154L62.7695 186.627L63.966 189.021L67.4246 190.617L64.631 192.213L64.7643 190.218L62.902 192.479L63.8335 193.543L62.6362 195.671L63.567 198.198L65.03 200.725L64.3651 203.784L62.7695 204.05L62.2371 201.124L61.0398 197.799L58.5135 197.666L57.4495 194.873L54.7892 195.139L55.1883 192.612L51.7304 194.075L50.6664 196.602L48.2718 196.469L49.2034 194.873L45.3465 195.272L39.8931 198.597L36.4354 198.198L35.7705 199.395L37.2335 201.257L36.0362 203.518L33.7749 203.119L31.9136 200.725L28.1892 201.124L27.2585 205.646L21.6719 206.843L22.6034 207.641L20.0763 211.897L15.4212 215.754L16.8843 217.749L16.0861 219.744L17.815 220.675L18.3474 223.468L15.8203 225.596L18.879 227.325L20.3421 229.453L20.0763 235.704L16.6185 236.768L14.7563 239.827L11.2985 239.694L11.1652 243.418L7.70746 247.009L7.97322 251.398L4.91456 252.595L6.51016 254.723L7.04254 257.915L5.44617 258.979L5.31286 261.506L1.58928 260.974L-0.937866 259.378L-1.33693 256.319L-2.53423 254.058H-5.19383L-5.85875 256.984L-11.0455 260.708L-12.5086 264.831L-10.5139 266.959L-7.58767 266.161L-5.72544 270.683L-3.33161 271.747L-2.53423 274.673L-0.672012 276.003L-1.33693 279.062L-3.33161 280.791V283.584L-5.85875 282.786L-8.25259 286.111H-9.98141L-8.12004 290.633L-6.12451 293.027L-7.45436 295.82L-9.44979 299.145L-11.4446 300.342V303.002L-8.65166 305.396L-9.18403 307.524L-8.25259 310.317L-5.19383 311.647L-1.736 314.573L-3.46492 319.095L-3.59746 322.42H-1.20363L0.525288 329.469L2.38741 330.799L1.98835 332.794L3.3181 334.39L3.05233 337.449L5.18032 339.178L2.2541 341.971H-0.937866L-2.53423 340.641V343.7L-4.92807 342.769L-7.58767 348.488L-9.84895 348.621L-12.9076 350.217L-18.2277 343.434L-20.3556 344.099L-23.2819 341.838L-27.0062 343.035L-28.7351 344.498L-21.1538 351.015L-23.4151 352.877L-24.3459 351.281L-28.336 349.685L-34.1876 346.626L-35.5174 344.099L-37.1138 348.089L-36.0497 349.153L-35.9165 354.34L-37.5129 351.813L-40.04 350.483L-43.6311 351.547L-45.7591 350.483L-48.2862 353.941L-49.0836 351.813L-52.6746 349.685L-51.6106 349.153L-52.4089 346.094L-56 345.828L-54.5368 353.276L-55.7341 356.468L-53.2071 359.527L-54.0045 363.916L-52.1431 367.773L-51.4782 372.029L-52.0098 382.137L-51.8765 385.595L-48.552 385.994L-46.0249 389.984L-45.2267 393.575L-43.0987 396.634L-42.9654 398.895L-39.7734 403.151L-37.3796 404.88L-36.5814 407.407L-34.0551 410.732L-34.3209 413.126L-33.2569 415.387L-31.528 419.51L-33.1236 420.308L-32.1929 422.17L-28.4685 423.367L-25.5431 425.761V427.756L-23.8142 427.224L-22.7494 429.352L-22.0846 432.81L-19.6907 436.002L-22.6169 437.199L-21.8187 441.189L-17.1637 448.371L-17.5627 456.883L-13.5725 461.937L-10.1147 461.006L-6.78944 462.203L-3.06585 461.405L-2.80009 449.967L-1.86855 446.376L-2.40092 443.45L1.32342 439.859L4.51539 437.997L8.23907 437.598L5.04701 436.667L1.32342 439.061L3.71726 436.401L5.44617 431.746L3.3181 426.027L5.18032 424.298L7.17499 424.564L11.1652 424.83L17.815 422.436L18.0816 421.638L20.0763 421.239L24.3323 424.564L28.9874 424.963L29.519 427.49L31.2479 424.431L34.0408 425.894H36.4354L33.5092 418.18L34.9722 417.914L35.903 419.909L38.2975 420.574L38.6959 415.652L39.8931 411.929L39.4941 405.678L36.7012 403.284L35.7705 401.422L34.0408 402.22L33.5092 399.56L36.967 395.304L34.0408 390.383L37.1003 389.053L44.1492 386.925L43.6176 384.132L48.4052 380.674L52.927 381.206L54.6559 379.078L56.3856 378.945L58.1145 379.477L58.3802 383.999L57.4495 388.255L58.2469 389.718L62.902 390.649L64.2319 386.659L65.9616 384.265L72.8771 385.994L75.0051 383.733L77.2664 385.728L82.7189 386.792L86.5758 385.196L87.7731 386.659L88.8371 385.063L91.7633 389.452L90.1669 390.516L93.4922 392.91L95.3543 391.58L99.078 393.176L98.1472 396.767L100.94 399.294L103.999 400.757L104.93 403.417L104.265 405.146L105.729 406.875L105.861 410.2L107.191 412.86L104.93 414.589L106.793 416.185L109.585 411.929L111.447 415.254L111.713 418.712L113.309 421.771L117.565 421.904L119.561 420.574H123.018L127.806 423.367V426.293L130.333 427.756L132.329 425.894L134.589 428.155L136.451 427.889L137.781 430.549L136.584 432.012L138.047 435.603L141.505 438.263L141.24 440.258L143.368 440.79L147.224 438.529L148.288 441.455L151.214 443.583L156.933 444.913L160.125 441.588L161.854 441.056L161.322 438.529L158.396 436.135L158.529 434.406L154.539 431.347L156.135 430.682L154.14 426.692L159.726 427.756L163.45 427.224L162.785 422.303L167.041 420.973L170.499 421.771L171.164 422.835L174.888 424.298L175.287 422.702L170.1 417.781L172.494 415.387L170.898 413.259L173.292 412.062L174.356 409.934L176.883 412.195L183.932 414.855L190.183 416.185L195.504 416.983L202.685 418.978L204.414 420.707L205.478 418.579L207.606 418.313L211.197 420.175L215.054 420.574L224.098 422.436L228.487 422.835L230.349 420.441L232.743 421.372L234.339 420.042L236.201 419.643L237.398 421.505L240.989 422.702L243.915 426.426L246.442 425.362L249.102 426.16L249.368 429.086L248.304 432.677L249.368 433.608L247.905 438.396L246.309 437.731L246.975 440.79L248.437 439.992L251.097 441.854L251.895 440.657L253.89 442.519L255.619 440.79L255.752 446.243L257.88 443.982L260.407 444.913L260.673 446.775L263.998 448.105L260.806 450.898L261.471 453.957L266.126 452.76L269.319 455.686L270.249 453.292L273.175 452.361L275.17 453.159L281.155 450.898L290.997 448.903L288.603 452.494L286.475 451.696L287.14 454.223L295.254 463.932L296.318 466.193L304.43 488.537L307.356 497.581L311.479 496.251L311.878 493.325L314.139 492.527L317.73 495.054L316.666 497.182L319.592 497.581L319.726 500.374L322.385 500.108L328.37 501.704L331.03 499.842L336.882 499.443L340.074 501.305L342.069 504.364L343 509.019L349.118 511.811L351.113 517.93L354.039 517.664L359.093 519.925L363.083 516.201L364.546 517.398L362.817 518.595L364.812 519.659L366.408 522.851L369.733 525.245L374.654 524.181L376.782 520.989L380.772 520.59L382.9 521.255L390.082 518.063L389.683 515.669L392.742 515.004L393.407 513.541L399.126 511.147L401.786 509.418L405.244 508.886L408.037 506.093L411.495 505.96L412.692 504.098L415.751 505.96L418.412 504.63L418.943 506.359L429.583 506.491L430.78 510.216L433.44 512.743L435.967 512.211L437.43 513.275L441.42 513.541L444.213 511.811L448.868 512.876L454.055 512.211L457.114 513.807L463.631 508.753L464.429 503.167L461.902 501.97L459.508 497.979L460.838 492.128L462.168 491.862L462.7 488.803L464.961 487.739L466.956 483.217L470.547 484.946L473.473 485.079L476.532 486.409L480.788 485.744L488.635 487.606L495.551 487.739L495.817 490.399L498.743 496.65L501.27 497.714L511.245 498.778L515.634 497.315L516.964 495.32L524.146 491.197L529.865 490.532L532.392 491.197L535.717 489.734L541.569 492.128L546.091 491.064L547.953 490.931L548.884 493.99L555.135 496.251L560.322 494.123L569.632 493.192L570.829 491.729H574.287L578.41 487.207L583.863 484.414L586.656 481.754L589.316 481.222L591.444 479.094L591.71 475.902L593.706 472.443L598.094 467.124L601.951 465.927L608.601 467.257L611.66 465.927L614.719 462.735L624.96 462.868L629.482 461.937L631.876 458.612L633.871 453.558L637.196 451.43L638.26 449.302L637.063 446.509L635.201 447.041L635.733 441.854L634.935 439.992L635.6 437.066L634.802 429.484L636.664 425.096L636.797 421.904L634.27 420.175L633.738 417.781L631.078 418.047L628.684 419.909L627.62 418.313L628.684 416.185L630.28 409.402L632.541 408.072L637.196 403.018L638.925 401.156L642.649 399.028L644.644 396.368L647.038 394.772L652.491 393.841L654.619 394.506L659.54 391.447L665.126 390.915L676.431 395.171L676.963 397.166L681.352 399.826L684.278 400.491L686.938 403.683L691.593 404.747L695.051 408.604L697.578 408.338L699.972 412.461L703.829 412.86L706.09 411.929L710.745 407.806L711.144 408.87L714.469 408.205L716.863 405.412L722.449 406.476L726.173 406.077L728.7 403.816L729.897 406.476L734.153 407.54L735.483 410.998L740.67 412.195L742.931 409.269L744.66 409.003L750.778 402.752L749.847 399.693L751.443 395.703L754.103 393.575L754.502 390.516L757.694 385.196L760.753 384.132L761.684 386.925L765.807 388.388L766.339 392.644L765.541 396.235L769.531 402.619L769.93 404.88L772.058 406.476L771.526 408.87L772.989 410.865L772.457 412.195L774.319 415.387L773.388 418.579L775.782 421.372L774.319 423.766L775.649 428.554L774.984 431.613L770.462 431.214L769.664 429.219L766.871 427.889L764.742 428.155V434.007L762.083 438.13L764.344 438.795L770.728 443.051L774.053 448.371L776.048 448.903L777.91 455.42L776.048 456.75L774.186 460.341L779.905 462.336L779.373 459.011L776.713 459.41L781.368 456.085L780.437 452.228L781.102 447.573L780.437 446.376L782.565 445.312L782.432 448.504L783.496 447.041L784.294 442.519L787.619 446.376L790.811 443.051L792.54 443.849L793.338 441.987H795.599L797.328 438.263L799.855 434.938L800.121 431.347L801.85 427.224L803.446 420.973L802.648 418.978L803.18 415.786L802.116 415.121L801.185 408.338L802.249 406.077L801.185 401.688L801.584 399.56L800.786 395.171L801.451 391.447L801.185 384.398L800.121 377.881L796.131 368.837L795.599 362.187L793.471 357.399L792.806 345.961L789.481 342.104L784.693 334.656L781.102 333.459L780.703 330.4L779.107 330.533L774.984 328.139L772.457 324.947L771.526 322.287L769.132 320.292L769.265 318.297L767.536 316.834L768.068 315.105L767.27 310.982L764.477 308.987L760.753 309.12L760.354 307.125L755.832 304.997V301.805H750.512L746.921 303.401L742.798 303.534L741.202 302.204L736.68 303.002L735.483 306.46L731.094 309.253L734.419 311.78L736.946 316.834L735.35 318.164L734.818 314.041L733.222 312.711L733.887 316.302L733.488 320.026L730.828 323.883L729.498 317.898L726.04 319.76L725.508 312.711L724.444 314.839L723.779 320.425L726.04 320.026L727.104 322.952L724.843 325.346L718.858 317.765L713.006 324.282L709.016 325.745L707.287 324.415V321.09L708.351 318.43L707.952 313.376L708.75 301.273L708.351 297.283L709.282 295.155L707.819 294.889L706.356 288.239L706.09 282.919L707.021 277.998L705.957 275.338L706.755 271.215L704.228 267.624L703.43 264.831L704.228 259.378L702.1 251.797L703.563 245.28L705.292 243.684L705.957 240.625L710.745 235.039L713.937 229.32L715.267 231.315L717.794 228.921L715.267 226.394L717.927 224.532L721.651 221.606L721.385 218.414L723.247 215.754L724.577 216.286L726.572 213.36L724.577 213.892L723.114 212.296L724.577 210.168L723.114 209.769L723.38 206.444L727.902 202.321L729.498 202.72L731.227 200.592L730.03 199.794L731.227 196.735L735.483 196.469L738.01 193.543L737.345 197.4L735.483 201.656L738.941 201.523L740.936 197.4L740.005 194.474L743.33 191.681L741.202 187.159L745.325 183.967L744.793 180.376L747.32 176.253L743.064 175.987L740.271 181.307L736.68 178.514L737.212 176.785L735.217 175.322L733.222 171.598L731.493 164.416L729.099 161.623L728.301 157.234L724.711 155.505L723.646 149.786L725.641 146.461L725.109 144.998L726.705 138.215H729.631L730.03 135.954L728.301 132.23L732.69 134.225L735.217 138.614L737.345 137.816L738.941 139.678L739.074 135.422L740.936 137.949L743.862 139.146L738.276 124.782L735.882 120.526V118.664L738.675 117.866L736.946 115.472L735.084 117.201L732.291 115.073H730.296L729.498 113.078L727.104 112.945L727.503 104.699L731.892 101.906L730.03 105.763L731.626 108.822L738.409 111.216L741.202 113.876L742.398 112.546L745.591 117.068L747.054 115.605L747.32 121.59L748.384 122.787L749.448 128.772L751.842 129.836L752.773 132.629L756.63 139.146L756.497 141.274L758.492 143.269L759.822 146.993L762.482 148.988L766.206 155.638L768.6 163.884L767.27 165.879L769.132 168.539L767.137 171.465L767.536 173.061L772.058 173.46L775.383 177.45L776.713 183.036L783.762 189.154L791.742 193.809L801.85 196.868L808.766 198.198L819.672 201.523L828.716 202.587L839.223 206.311L840.952 205.247L844.41 206.71L840.42 195.538Z" stroke="white" stroke-width="2" mask="url(#path-53-inside-5_43_3490)"/>
<path d="M824.932 115.525L823.675 116.625L818.583 118.323L818.447 118.368L818.356 118.477L817.684 119.283L817.541 118.616L818.543 116.914L819.861 117.522L820.076 117.621L820.289 117.518L824.534 115.459L824.932 115.525Z" stroke="white"/>
<path d="M772.456 117.16L772.094 120.064L772.076 120.203L772.133 120.33L773.572 123.568L771.655 122.314L769.592 117.802L769.15 116.653L771.267 116.269L772.456 117.16Z" stroke="white"/>
</g>
</svg>
