<svg width="71" height="83" viewBox="0 0 71 83" fill="none" xmlns="http://www.w3.org/2000/svg">
<path d="M48.9576 20.4832H55.7373C59.1271 20.4832 61.9744 22.9916 62.4492 26.3135L69.2288 73.7711C69.2966 74.0423 69.2966 74.3815 69.2966 74.7204C69.2966 78.4492 66.2458 81.5001 62.517 81.5001H8.27966C4.55085 81.5001 1.5 78.4492 1.5 74.7204C1.5 74.3815 1.5 74.0423 1.5678 73.7711L8.34746 26.3135C8.8222 22.9916 11.6695 20.4832 15.0593 20.4832H35.3983" stroke="#BBC7D2" stroke-width="3" stroke-miterlimit="10" stroke-linecap="round" stroke-linejoin="round"/>
<path d="M21.8389 20.483V15.0593C21.8389 7.57068 27.9095 1.5 35.3982 1.5C42.8868 1.5 48.9575 7.57068 48.9575 15.0593V20.483" stroke="#BBC7D2" stroke-width="3" stroke-miterlimit="10" stroke-linecap="round" stroke-linejoin="round"/>
<path d="M21.8389 34.0422V40.8219C21.8389 48.3105 27.9095 54.3812 35.3982 54.3812C42.8868 54.3812 48.9575 48.3105 48.9575 40.8219V34.0422" stroke="#BBC7D2" stroke-width="3" stroke-miterlimit="10" stroke-linecap="round" stroke-linejoin="round"/>
</svg>
