<svg width="309" height="62" viewBox="0 0 309 62" fill="none" xmlns="http://www.w3.org/2000/svg">
<circle cx="31" cy="31" r="23" stroke="url(#paint0_linear_33_200)" stroke-width="16"/>
<path d="M102.88 48.816C99.136 48.816 95.872 48.08 93.088 46.608C90.304 45.136 88.144 43.072 86.608 40.416C85.072 37.76 84.304 34.656 84.304 31.104C84.304 27.52 85.072 24.4 86.608 21.744C88.144 19.088 90.304 17.024 93.088 15.552C95.872 14.08 99.136 13.344 102.88 13.344C106.624 13.344 109.872 14.08 112.624 15.552C115.408 17.024 117.568 19.088 119.104 21.744C120.64 24.4 121.408 27.52 121.408 31.104C121.408 34.656 120.64 37.76 119.104 40.416C117.568 43.072 115.408 45.136 112.624 46.608C109.872 48.08 106.624 48.816 102.88 48.816ZM102.88 43.296C105.248 43.296 107.296 42.8 109.024 41.808C110.784 40.784 112.144 39.36 113.104 37.536C114.064 35.712 114.544 33.568 114.544 31.104C114.544 28.64 114.064 26.496 113.104 24.672C112.144 22.816 110.784 21.392 109.024 20.4C107.264 19.376 105.216 18.864 102.88 18.864C100.512 18.864 98.448 19.376 96.688 20.4C94.96 21.392 93.6 22.816 92.608 24.672C91.648 26.496 91.168 28.64 91.168 31.104C91.168 33.568 91.648 35.712 92.608 37.536C93.568 39.36 94.928 40.784 96.688 41.808C98.448 42.8 100.512 43.296 102.88 43.296ZM127.415 48V14.16H143.543C146.103 14.16 148.279 14.576 150.071 15.408C151.895 16.208 153.287 17.392 154.247 18.96C155.239 20.496 155.735 22.352 155.735 24.528C155.735 26.672 155.239 28.512 154.247 30.048C153.287 31.584 151.895 32.768 150.071 33.6C148.279 34.432 146.103 34.848 143.543 34.848H132.263V29.664H142.727C144.839 29.664 146.455 29.248 147.575 28.416C148.727 27.552 149.303 26.24 149.303 24.48C149.303 22.72 148.727 21.424 147.575 20.592C146.455 19.76 144.839 19.344 142.727 19.344H131.879L133.847 17.664V48H127.415ZM164.623 38.304L164.863 28.464H167.455L183.103 14.16H191.263L175.759 28.464L174.271 29.52L164.623 38.304ZM161.071 48V14.16H167.503V48H161.071ZM184.687 48L172.351 29.712L176.911 25.68L192.127 48H184.687Z" fill="white"/>
<path d="M221.16 22.704C220.24 22.704 219.44 22.52 218.76 22.152C218.08 21.784 217.552 21.268 217.176 20.604C216.8 19.94 216.612 19.164 216.612 18.276C216.612 17.38 216.8 16.6 217.176 15.936C217.552 15.272 218.08 14.756 218.76 14.388C219.44 14.02 220.24 13.836 221.16 13.836C222.08 13.836 222.88 14.02 223.56 14.388C224.24 14.756 224.768 15.272 225.144 15.936C225.52 16.6 225.708 17.38 225.708 18.276C225.708 19.164 225.52 19.94 225.144 20.604C224.768 21.268 224.24 21.784 223.56 22.152C222.88 22.52 222.08 22.704 221.16 22.704ZM221.16 21.504C221.784 21.504 222.328 21.372 222.792 21.108C223.256 20.836 223.612 20.46 223.86 19.98C224.116 19.492 224.244 18.924 224.244 18.276C224.244 17.62 224.116 17.052 223.86 16.572C223.612 16.084 223.256 15.708 222.792 15.444C222.328 15.172 221.784 15.036 221.16 15.036C220.536 15.036 219.992 15.172 219.528 15.444C219.064 15.708 218.704 16.084 218.448 16.572C218.2 17.052 218.076 17.62 218.076 18.276C218.076 18.924 218.2 19.492 218.448 19.98C218.704 20.46 219.064 20.836 219.528 21.108C219.992 21.372 220.536 21.504 221.16 21.504ZM228.808 22.5V16.536H230.14V22.5H228.808ZM226.516 17.34V16.212H232.444V17.34H226.516ZM238.077 22.5L235.701 19.104L238.017 16.212H239.541L236.757 19.56V18.528L239.589 22.5H238.077ZM233.433 22.5V16.212H234.765V22.5H233.433ZM233.997 19.716V18.576H236.385V19.716H233.997ZM240.781 24.9V16.212H242.029V17.316H242.053C242.181 17.06 242.361 16.84 242.593 16.656C242.825 16.464 243.093 16.32 243.397 16.224C243.701 16.12 244.025 16.068 244.369 16.068C244.961 16.068 245.481 16.204 245.929 16.476C246.377 16.74 246.725 17.12 246.973 17.616C247.229 18.104 247.357 18.684 247.357 19.356C247.357 20.028 247.229 20.612 246.973 21.108C246.725 21.604 246.377 21.984 245.929 22.248C245.489 22.512 244.969 22.644 244.369 22.644C244.041 22.644 243.729 22.596 243.433 22.5C243.145 22.396 242.889 22.256 242.665 22.08C242.449 21.896 242.273 21.684 242.137 21.444H242.113V24.9H240.781ZM244.021 21.576C244.421 21.576 244.765 21.488 245.053 21.312C245.349 21.136 245.577 20.884 245.737 20.556C245.905 20.22 245.989 19.824 245.989 19.368C245.989 18.896 245.905 18.496 245.737 18.168C245.577 17.84 245.349 17.588 245.053 17.412C244.765 17.236 244.421 17.148 244.021 17.148C243.621 17.148 243.269 17.236 242.965 17.412C242.669 17.588 242.437 17.84 242.269 18.168C242.109 18.496 242.029 18.896 242.029 19.368C242.029 19.816 242.113 20.208 242.281 20.544C242.449 20.872 242.681 21.128 242.977 21.312C243.281 21.488 243.629 21.576 244.021 21.576ZM248.667 22.5V16.212H249.999V18.276H251.895C252.655 18.276 253.255 18.46 253.695 18.828C254.135 19.188 254.355 19.708 254.355 20.388C254.355 21.068 254.135 21.592 253.695 21.96C253.255 22.32 252.655 22.5 251.895 22.5H248.667ZM249.999 21.504H251.703C252.135 21.504 252.459 21.404 252.675 21.204C252.891 21.004 252.999 20.732 252.999 20.388C252.999 20.044 252.891 19.772 252.675 19.572C252.459 19.372 252.135 19.272 251.703 19.272H249.999V21.504ZM255.339 22.5V16.212H256.671V22.5H255.339ZM259.957 22.5V16.536H261.289V22.5H259.957ZM257.665 17.34V16.212H263.593V17.34H257.665ZM266.375 22.644C265.679 22.644 265.123 22.48 264.707 22.152C264.291 21.816 264.083 21.372 264.083 20.82C264.083 20.292 264.271 19.864 264.647 19.536C265.031 19.2 265.587 18.98 266.315 18.876L269.087 18.492V19.332L266.687 19.692C266.263 19.756 265.943 19.876 265.727 20.052C265.519 20.22 265.415 20.452 265.415 20.748C265.415 21.044 265.523 21.276 265.739 21.444C265.955 21.604 266.263 21.684 266.663 21.684C267.039 21.684 267.367 21.616 267.647 21.48C267.927 21.336 268.143 21.136 268.295 20.88C268.455 20.624 268.535 20.324 268.535 19.98V18.336C268.535 17.944 268.415 17.64 268.175 17.424C267.935 17.2 267.579 17.088 267.107 17.088C266.683 17.088 266.339 17.172 266.075 17.34C265.811 17.508 265.623 17.76 265.511 18.096L264.263 17.808C264.423 17.264 264.755 16.84 265.259 16.536C265.763 16.224 266.391 16.068 267.143 16.068C268.047 16.068 268.723 16.276 269.171 16.692C269.627 17.1 269.855 17.68 269.855 18.432V21.264L270.371 22.5H268.979L268.619 21.588H268.583C268.367 21.916 268.067 22.176 267.683 22.368C267.307 22.552 266.871 22.644 266.375 22.644ZM275.826 22.5V19.824H275.046L274.938 20.064H273.738C273.25 20.064 272.83 19.992 272.478 19.848C272.126 19.704 271.854 19.492 271.662 19.212C271.478 18.924 271.386 18.572 271.386 18.156C271.386 17.74 271.482 17.388 271.674 17.1C271.866 16.812 272.138 16.592 272.49 16.44C272.842 16.288 273.258 16.212 273.738 16.212H277.158V22.5H275.826ZM271.086 22.5L274.722 19.416L276.27 19.428L272.79 22.5H271.086ZM273.954 19.14H275.826V17.208H273.954C273.546 17.208 273.242 17.296 273.042 17.472C272.842 17.64 272.742 17.876 272.742 18.18C272.742 18.476 272.842 18.712 273.042 18.888C273.242 19.056 273.546 19.14 273.954 19.14ZM216.804 37.9V29.212H218.052V30.316H218.076C218.204 30.06 218.384 29.84 218.616 29.656C218.848 29.464 219.116 29.32 219.42 29.224C219.724 29.12 220.048 29.068 220.392 29.068C220.984 29.068 221.504 29.204 221.952 29.476C222.4 29.74 222.748 30.12 222.996 30.616C223.252 31.104 223.38 31.684 223.38 32.356C223.38 33.028 223.252 33.612 222.996 34.108C222.748 34.604 222.4 34.984 221.952 35.248C221.512 35.512 220.992 35.644 220.392 35.644C220.064 35.644 219.752 35.596 219.456 35.5C219.168 35.396 218.912 35.256 218.688 35.08C218.472 34.896 218.296 34.684 218.16 34.444H218.136V37.9H216.804ZM220.044 34.576C220.444 34.576 220.788 34.488 221.076 34.312C221.372 34.136 221.6 33.884 221.76 33.556C221.928 33.22 222.012 32.824 222.012 32.368C222.012 31.896 221.928 31.496 221.76 31.168C221.6 30.84 221.372 30.588 221.076 30.412C220.788 30.236 220.444 30.148 220.044 30.148C219.644 30.148 219.292 30.236 218.988 30.412C218.692 30.588 218.46 30.84 218.292 31.168C218.132 31.496 218.052 31.896 218.052 32.368C218.052 32.816 218.136 33.208 218.304 33.544C218.472 33.872 218.704 34.128 219 34.312C219.304 34.488 219.652 34.576 220.044 34.576ZM227.797 35.644C227.109 35.644 226.517 35.508 226.021 35.236C225.525 34.956 225.141 34.568 224.869 34.072C224.605 33.568 224.473 32.984 224.473 32.32C224.473 31.664 224.613 31.096 224.893 30.616C225.173 30.128 225.561 29.748 226.057 29.476C226.553 29.204 227.121 29.068 227.761 29.068C228.401 29.068 228.957 29.192 229.429 29.44C229.901 29.68 230.265 30.028 230.521 30.484C230.785 30.932 230.917 31.46 230.917 32.068C230.917 32.18 230.913 32.292 230.905 32.404C230.905 32.508 230.901 32.592 230.893 32.656H225.181V31.756H230.053L229.633 31.984C229.641 31.576 229.569 31.228 229.417 30.94C229.265 30.652 229.045 30.436 228.757 30.292C228.469 30.14 228.129 30.064 227.737 30.064C227.361 30.064 227.025 30.136 226.729 30.28C226.441 30.424 226.213 30.648 226.045 30.952C225.877 31.248 225.793 31.632 225.793 32.104V32.452C225.793 33.124 225.969 33.652 226.321 34.036C226.681 34.412 227.201 34.6 227.881 34.6C228.297 34.6 228.657 34.524 228.961 34.372C229.273 34.212 229.521 33.968 229.705 33.64L230.737 34.18C230.577 34.492 230.357 34.76 230.077 34.984C229.797 35.2 229.465 35.364 229.081 35.476C228.697 35.588 228.269 35.644 227.797 35.644ZM232.179 35.5V29.212H233.511V35.5H232.179ZM232.539 30.34V29.212H236.595V30.34H232.539ZM237.617 35.5V29.212H238.925V34.42H238.961L241.853 29.212H243.821V35.5H242.513V30.304H242.477L239.597 35.5H237.617ZM248.505 35.644C247.849 35.644 247.265 35.512 246.753 35.248C246.241 34.976 245.841 34.596 245.553 34.108C245.273 33.612 245.133 33.028 245.133 32.356C245.133 31.684 245.273 31.104 245.553 30.616C245.841 30.128 246.241 29.748 246.753 29.476C247.265 29.204 247.849 29.068 248.505 29.068C249.177 29.068 249.765 29.204 250.269 29.476C250.781 29.748 251.181 30.128 251.469 30.616C251.757 31.104 251.901 31.684 251.901 32.356C251.901 33.028 251.757 33.612 251.469 34.108C251.181 34.596 250.781 34.976 250.269 35.248C249.765 35.512 249.177 35.644 248.505 35.644ZM248.517 34.576C248.901 34.576 249.245 34.496 249.549 34.336C249.853 34.168 250.089 33.92 250.257 33.592C250.433 33.264 250.521 32.856 250.521 32.368C250.521 31.872 250.433 31.46 250.257 31.132C250.089 30.796 249.853 30.548 249.549 30.388C249.245 30.22 248.901 30.136 248.517 30.136C248.125 30.136 247.777 30.22 247.473 30.388C247.169 30.548 246.929 30.796 246.753 31.132C246.585 31.46 246.501 31.872 246.501 32.368C246.501 32.856 246.585 33.264 246.753 33.592C246.929 33.92 247.169 34.168 247.473 34.336C247.777 34.496 248.125 34.576 248.517 34.576ZM257.774 35.5V29.212H259.106V35.5H257.774ZM253.202 35.5V29.212H254.534V35.5H253.202ZM254.03 32.8V31.684H258.266V32.8H254.03ZM262.73 35.644C262.034 35.644 261.478 35.48 261.062 35.152C260.646 34.816 260.438 34.372 260.438 33.82C260.438 33.292 260.626 32.864 261.002 32.536C261.386 32.2 261.942 31.98 262.67 31.876L265.442 31.492V32.332L263.042 32.692C262.618 32.756 262.298 32.876 262.082 33.052C261.874 33.22 261.77 33.452 261.77 33.748C261.77 34.044 261.878 34.276 262.094 34.444C262.31 34.604 262.618 34.684 263.018 34.684C263.394 34.684 263.722 34.616 264.002 34.48C264.282 34.336 264.498 34.136 264.65 33.88C264.81 33.624 264.89 33.324 264.89 32.98V31.336C264.89 30.944 264.77 30.64 264.53 30.424C264.29 30.2 263.934 30.088 263.462 30.088C263.038 30.088 262.694 30.172 262.43 30.34C262.166 30.508 261.978 30.76 261.866 31.096L260.618 30.808C260.778 30.264 261.11 29.84 261.614 29.536C262.118 29.224 262.746 29.068 263.498 29.068C264.402 29.068 265.078 29.276 265.526 29.692C265.982 30.1 266.21 30.68 266.21 31.432V34.264L266.726 35.5H265.334L264.974 34.588H264.938C264.722 34.916 264.422 35.176 264.038 35.368C263.662 35.552 263.226 35.644 262.73 35.644ZM268.016 35.584C267.88 35.584 267.752 35.572 267.632 35.548C267.52 35.532 267.416 35.508 267.32 35.476V34.36C267.392 34.392 267.464 34.416 267.536 34.432C267.608 34.44 267.688 34.444 267.776 34.444C268.032 34.444 268.236 34.344 268.388 34.144C268.548 33.936 268.648 33.568 268.688 33.04C268.704 32.848 268.716 32.66 268.724 32.476C268.732 32.292 268.74 32.104 268.748 31.912C268.764 31.712 268.775 31.504 268.784 31.288L268.868 29.212H273.98V35.5H272.648V29.572L273.068 30.34H269.252L270.044 29.572L269.96 31.384C269.952 31.704 269.94 32.004 269.924 32.284C269.916 32.556 269.9 32.852 269.876 33.172C269.844 33.756 269.756 34.224 269.612 34.576C269.468 34.928 269.264 35.184 269 35.344C268.744 35.504 268.416 35.584 268.016 35.584ZM275.597 35.5V29.212H276.929V31.276H278.825C279.585 31.276 280.185 31.46 280.625 31.828C281.065 32.188 281.285 32.708 281.285 33.388C281.285 34.068 281.065 34.592 280.625 34.96C280.185 35.32 279.585 35.5 278.825 35.5H275.597ZM276.929 34.504H278.633C279.065 34.504 279.389 34.404 279.605 34.204C279.821 34.004 279.929 33.732 279.929 33.388C279.929 33.044 279.821 32.772 279.605 32.572C279.389 32.372 279.065 32.272 278.633 32.272H276.929V34.504ZM287.036 35.5V29.212H288.368V35.5H287.036ZM282.464 35.5V29.212H283.796V35.5H282.464ZM283.292 32.8V31.684H287.528V32.8H283.292ZM291.992 35.644C291.296 35.644 290.74 35.48 290.324 35.152C289.908 34.816 289.7 34.372 289.7 33.82C289.7 33.292 289.888 32.864 290.264 32.536C290.648 32.2 291.204 31.98 291.932 31.876L294.704 31.492V32.332L292.304 32.692C291.88 32.756 291.56 32.876 291.344 33.052C291.136 33.22 291.032 33.452 291.032 33.748C291.032 34.044 291.14 34.276 291.356 34.444C291.572 34.604 291.88 34.684 292.28 34.684C292.656 34.684 292.984 34.616 293.264 34.48C293.544 34.336 293.76 34.136 293.912 33.88C294.072 33.624 294.152 33.324 294.152 32.98V31.336C294.152 30.944 294.032 30.64 293.792 30.424C293.552 30.2 293.196 30.088 292.724 30.088C292.3 30.088 291.956 30.172 291.692 30.34C291.428 30.508 291.24 30.76 291.128 31.096L289.88 30.808C290.04 30.264 290.372 29.84 290.876 29.536C291.38 29.224 292.008 29.068 292.76 29.068C293.664 29.068 294.34 29.276 294.788 29.692C295.244 30.1 295.472 30.68 295.472 31.432V34.264L295.988 35.5H294.596L294.236 34.588H294.2C293.984 34.916 293.684 35.176 293.3 35.368C292.924 35.552 292.488 35.644 291.992 35.644ZM301.443 35.5V32.824H300.663L300.555 33.064H299.355C298.867 33.064 298.447 32.992 298.095 32.848C297.743 32.704 297.471 32.492 297.279 32.212C297.095 31.924 297.003 31.572 297.003 31.156C297.003 30.74 297.099 30.388 297.291 30.1C297.483 29.812 297.755 29.592 298.107 29.44C298.459 29.288 298.875 29.212 299.355 29.212H302.775V35.5H301.443ZM296.703 35.5L300.339 32.416L301.887 32.428L298.407 35.5H296.703ZM299.571 32.14H301.443V30.208H299.571C299.163 30.208 298.859 30.296 298.659 30.472C298.459 30.64 298.359 30.876 298.359 31.18C298.359 31.476 298.459 31.712 298.659 31.888C298.859 32.056 299.163 32.14 299.571 32.14ZM221.448 48.5L219.072 45.104L221.388 42.212H222.912L220.128 45.56V44.528L222.96 48.5H221.448ZM216.804 48.5V42.212H218.136V48.5H216.804ZM217.368 45.716V44.576H219.756V45.716H217.368ZM226.72 48.644C226.064 48.644 225.48 48.512 224.968 48.248C224.456 47.976 224.056 47.596 223.768 47.108C223.488 46.612 223.348 46.028 223.348 45.356C223.348 44.684 223.488 44.104 223.768 43.616C224.056 43.128 224.456 42.748 224.968 42.476C225.48 42.204 226.064 42.068 226.72 42.068C227.392 42.068 227.98 42.204 228.484 42.476C228.996 42.748 229.396 43.128 229.684 43.616C229.972 44.104 230.116 44.684 230.116 45.356C230.116 46.028 229.972 46.612 229.684 47.108C229.396 47.596 228.996 47.976 228.484 48.248C227.98 48.512 227.392 48.644 226.72 48.644ZM226.732 47.576C227.116 47.576 227.46 47.496 227.764 47.336C228.068 47.168 228.304 46.92 228.472 46.592C228.648 46.264 228.736 45.856 228.736 45.368C228.736 44.872 228.648 44.46 228.472 44.132C228.304 43.796 228.068 43.548 227.764 43.388C227.46 43.22 227.116 43.136 226.732 43.136C226.34 43.136 225.992 43.22 225.688 43.388C225.384 43.548 225.144 43.796 224.968 44.132C224.8 44.46 224.716 44.872 224.716 45.368C224.716 45.856 224.8 46.264 224.968 46.592C225.144 46.92 225.384 47.168 225.688 47.336C225.992 47.496 226.34 47.576 226.732 47.576ZM231.417 48.5V42.212H233.733L235.473 47.672H235.509L237.237 42.212H239.553V48.5H238.257V43.004H238.221L236.409 48.5H234.561L232.749 43.004H232.713V48.5H231.417ZM245.632 48.5V42.212H246.952V48.5H245.632ZM241.156 48.5V42.212H242.488V48.5H241.156ZM242.08 43.34V42.212H246.004V43.34H242.08ZM250.578 48.644C249.882 48.644 249.326 48.48 248.91 48.152C248.494 47.816 248.286 47.372 248.286 46.82C248.286 46.292 248.474 45.864 248.85 45.536C249.234 45.2 249.79 44.98 250.518 44.876L253.29 44.492V45.332L250.89 45.692C250.466 45.756 250.146 45.876 249.93 46.052C249.722 46.22 249.618 46.452 249.618 46.748C249.618 47.044 249.726 47.276 249.942 47.444C250.158 47.604 250.466 47.684 250.866 47.684C251.242 47.684 251.57 47.616 251.85 47.48C252.13 47.336 252.346 47.136 252.498 46.88C252.658 46.624 252.738 46.324 252.738 45.98V44.336C252.738 43.944 252.618 43.64 252.378 43.424C252.138 43.2 251.782 43.088 251.31 43.088C250.886 43.088 250.542 43.172 250.278 43.34C250.014 43.508 249.826 43.76 249.714 44.096L248.466 43.808C248.626 43.264 248.958 42.84 249.462 42.536C249.966 42.224 250.594 42.068 251.346 42.068C252.25 42.068 252.926 42.276 253.374 42.692C253.83 43.1 254.058 43.68 254.058 44.432V47.264L254.574 48.5H253.182L252.822 47.588H252.786C252.57 47.916 252.27 48.176 251.886 48.368C251.51 48.552 251.074 48.644 250.578 48.644ZM260.317 48.5V42.212H261.649V48.5H260.317ZM255.745 48.5V42.212H257.077V48.5H255.745ZM256.573 45.8V44.684H260.809V45.8H256.573ZM263.257 48.5V42.212H264.565V47.42H264.601L267.493 42.212H269.461V48.5H268.153V43.304H268.117L265.237 48.5H263.257ZM275.358 48.5V45.824H274.578L274.47 46.064H273.27C272.782 46.064 272.362 45.992 272.01 45.848C271.658 45.704 271.386 45.492 271.194 45.212C271.01 44.924 270.918 44.572 270.918 44.156C270.918 43.74 271.014 43.388 271.206 43.1C271.398 42.812 271.67 42.592 272.022 42.44C272.374 42.288 272.79 42.212 273.27 42.212H276.69V48.5H275.358ZM270.618 48.5L274.254 45.416L275.802 45.428L272.322 48.5H270.618ZM273.486 45.14H275.358V43.208H273.486C273.078 43.208 272.774 43.296 272.574 43.472C272.374 43.64 272.274 43.876 272.274 44.18C272.274 44.476 272.374 44.712 272.574 44.888C272.774 45.056 273.078 45.14 273.486 45.14Z" fill="white"/>
<defs>
<linearGradient id="paint0_linear_33_200" x1="24.8646" y1="22.6042" x2="62" y2="62" gradientUnits="userSpaceOnUse">
<stop stop-color="#003A92"/>
<stop offset="1" stop-color="#004CBE"/>
</linearGradient>
</defs>
</svg>
