<svg width="326" height="96" viewBox="0 0 326 96" fill="none" xmlns="http://www.w3.org/2000/svg">
<path d="M126.88 65.816C123.136 65.816 119.872 65.08 117.088 63.608C114.304 62.136 112.144 60.072 110.608 57.416C109.072 54.76 108.304 51.656 108.304 48.104C108.304 44.52 109.072 41.4 110.608 38.744C112.144 36.088 114.304 34.024 117.088 32.552C119.872 31.08 123.136 30.344 126.88 30.344C130.624 30.344 133.872 31.08 136.624 32.552C139.408 34.024 141.568 36.088 143.104 38.744C144.64 41.4 145.408 44.52 145.408 48.104C145.408 51.656 144.64 54.76 143.104 57.416C141.568 60.072 139.408 62.136 136.624 63.608C133.872 65.08 130.624 65.816 126.88 65.816ZM126.88 60.296C129.248 60.296 131.296 59.8 133.024 58.808C134.784 57.784 136.144 56.36 137.104 54.536C138.064 52.712 138.544 50.568 138.544 48.104C138.544 45.64 138.064 43.496 137.104 41.672C136.144 39.816 134.784 38.392 133.024 37.4C131.264 36.376 129.216 35.864 126.88 35.864C124.512 35.864 122.448 36.376 120.688 37.4C118.96 38.392 117.6 39.816 116.608 41.672C115.648 43.496 115.168 45.64 115.168 48.104C115.168 50.568 115.648 52.712 116.608 54.536C117.568 56.36 118.928 57.784 120.688 58.808C122.448 59.8 124.512 60.296 126.88 60.296ZM151.415 65V31.16H167.543C170.103 31.16 172.279 31.576 174.071 32.408C175.895 33.208 177.287 34.392 178.247 35.96C179.239 37.496 179.735 39.352 179.735 41.528C179.735 43.672 179.239 45.512 178.247 47.048C177.287 48.584 175.895 49.768 174.071 50.6C172.279 51.432 170.103 51.848 167.543 51.848H156.263V46.664H166.727C168.839 46.664 170.455 46.248 171.575 45.416C172.727 44.552 173.303 43.24 173.303 41.48C173.303 39.72 172.727 38.424 171.575 37.592C170.455 36.76 168.839 36.344 166.727 36.344H155.879L157.847 34.664V65H151.415ZM188.623 55.304L188.863 45.464H191.455L207.103 31.16H215.263L199.759 45.464L198.271 46.52L188.623 55.304ZM185.071 65V31.16H191.503V65H185.071ZM208.687 65L196.351 46.712L200.911 42.68L216.127 65H208.687Z" fill="black"/>
<path d="M245.088 39.704C244.192 39.704 243.408 39.52 242.736 39.152C242.072 38.784 241.556 38.268 241.188 37.604C240.828 36.94 240.648 36.164 240.648 35.276C240.648 34.38 240.828 33.6 241.188 32.936C241.556 32.264 242.072 31.748 242.736 31.388C243.408 31.02 244.192 30.836 245.088 30.836C245.992 30.836 246.772 31.02 247.428 31.388C248.092 31.748 248.608 32.264 248.976 32.936C249.344 33.6 249.528 34.38 249.528 35.276C249.528 36.164 249.344 36.94 248.976 37.604C248.608 38.268 248.092 38.784 247.428 39.152C246.772 39.52 245.992 39.704 245.088 39.704ZM245.088 38.744C245.76 38.744 246.34 38.6 246.828 38.312C247.324 38.024 247.708 37.62 247.98 37.1C248.252 36.58 248.388 35.972 248.388 35.276C248.388 34.58 248.252 33.972 247.98 33.452C247.708 32.924 247.324 32.516 246.828 32.228C246.34 31.94 245.76 31.796 245.088 31.796C244.424 31.796 243.844 31.94 243.348 32.228C242.852 32.516 242.464 32.924 242.184 33.452C241.912 33.972 241.776 34.58 241.776 35.276C241.776 35.972 241.912 36.58 242.184 37.1C242.464 37.62 242.852 38.024 243.348 38.312C243.844 38.6 244.424 38.744 245.088 38.744ZM252.704 39.5V33.572H253.748V39.5H252.704ZM250.34 34.148V33.26H256.1V34.148H250.34ZM261.725 39.5L259.277 36.104L261.689 33.26H262.913L260.093 36.512L260.165 35.744L262.925 39.5H261.725ZM257.117 39.5V33.26H258.161V39.5H257.117ZM257.573 36.596V35.708H259.817V36.596H257.573ZM264.195 41.9V33.26H265.167V34.436H265.191C265.327 34.164 265.511 33.928 265.743 33.728C265.983 33.528 266.259 33.376 266.571 33.272C266.883 33.168 267.211 33.116 267.555 33.116C268.155 33.116 268.679 33.248 269.127 33.512C269.575 33.776 269.923 34.152 270.171 34.64C270.427 35.128 270.555 35.708 270.555 36.38C270.555 37.052 270.427 37.632 270.171 38.12C269.923 38.608 269.575 38.984 269.127 39.248C268.687 39.512 268.167 39.644 267.567 39.644C267.231 39.644 266.911 39.592 266.607 39.488C266.311 39.384 266.047 39.236 265.815 39.044C265.583 38.844 265.399 38.612 265.263 38.348H265.239V41.9H264.195ZM267.339 38.756C267.771 38.756 268.143 38.664 268.455 38.48C268.775 38.288 269.023 38.016 269.199 37.664C269.383 37.312 269.475 36.884 269.475 36.38C269.475 35.876 269.383 35.448 269.199 35.096C269.023 34.744 268.775 34.476 268.455 34.292C268.143 34.1 267.771 34.004 267.339 34.004C266.907 34.004 266.527 34.1 266.199 34.292C265.871 34.476 265.615 34.744 265.431 35.096C265.255 35.448 265.167 35.876 265.167 36.38C265.167 36.868 265.259 37.292 265.443 37.652C265.635 38.004 265.891 38.276 266.211 38.468C266.539 38.66 266.915 38.756 267.339 38.756ZM271.918 39.5V33.26H272.962V35.396H274.906C275.658 35.396 276.25 35.572 276.682 35.924C277.114 36.276 277.33 36.784 277.33 37.448C277.33 38.112 277.114 38.62 276.682 38.972C276.25 39.324 275.658 39.5 274.906 39.5H271.918ZM272.962 38.672H274.81C275.298 38.672 275.658 38.564 275.89 38.348C276.13 38.124 276.25 37.824 276.25 37.448C276.25 37.072 276.13 36.776 275.89 36.56C275.658 36.336 275.298 36.224 274.81 36.224H272.962V38.672ZM278.386 39.5V33.26H279.43V39.5H278.386ZM282.798 39.5V33.572H283.842V39.5H282.798ZM280.434 34.148V33.26H286.194V34.148H280.434ZM288.91 39.644C288.23 39.644 287.682 39.484 287.266 39.164C286.858 38.836 286.654 38.396 286.654 37.844C286.654 37.324 286.842 36.9 287.218 36.572C287.594 36.244 288.126 36.036 288.814 35.948L291.682 35.528V36.272L289.138 36.644C288.658 36.716 288.302 36.848 288.07 37.04C287.846 37.224 287.734 37.48 287.734 37.808C287.734 38.136 287.85 38.388 288.082 38.564C288.322 38.74 288.658 38.828 289.09 38.828C289.506 38.828 289.866 38.752 290.17 38.6C290.482 38.448 290.722 38.232 290.89 37.952C291.058 37.672 291.142 37.344 291.142 36.968V35.36C291.142 34.92 291.01 34.58 290.746 34.34C290.482 34.092 290.09 33.968 289.57 33.968C289.106 33.968 288.726 34.06 288.43 34.244C288.142 34.428 287.942 34.7 287.83 35.06L286.834 34.808C286.994 34.28 287.314 33.868 287.794 33.572C288.274 33.268 288.874 33.116 289.594 33.116C290.45 33.116 291.094 33.316 291.526 33.716C291.958 34.108 292.174 34.668 292.174 35.396V38.228L292.702 39.5H291.586L291.202 38.54H291.166C290.95 38.884 290.646 39.156 290.254 39.356C289.862 39.548 289.414 39.644 288.91 39.644ZM298.222 39.5V36.8H297.55L297.466 36.968H296.05C295.578 36.968 295.17 36.896 294.826 36.752C294.482 36.608 294.218 36.4 294.034 36.128C293.85 35.856 293.758 35.52 293.758 35.12C293.758 34.72 293.85 34.384 294.034 34.112C294.218 33.832 294.482 33.62 294.826 33.476C295.17 33.332 295.578 33.26 296.05 33.26H299.254V39.5H298.222ZM293.47 39.5L297.37 36.416H298.666L294.874 39.5H293.47ZM296.158 36.176H298.222V34.088H296.158C295.71 34.088 295.378 34.18 295.162 34.364C294.946 34.548 294.838 34.804 294.838 35.132C294.838 35.46 294.946 35.716 295.162 35.9C295.386 36.084 295.718 36.176 296.158 36.176ZM240.84 54.9V46.26H241.812V47.436H241.836C241.972 47.164 242.156 46.928 242.388 46.728C242.628 46.528 242.904 46.376 243.216 46.272C243.528 46.168 243.856 46.116 244.2 46.116C244.8 46.116 245.324 46.248 245.772 46.512C246.22 46.776 246.568 47.152 246.816 47.64C247.072 48.128 247.2 48.708 247.2 49.38C247.2 50.052 247.072 50.632 246.816 51.12C246.568 51.608 246.22 51.984 245.772 52.248C245.332 52.512 244.812 52.644 244.212 52.644C243.876 52.644 243.556 52.592 243.252 52.488C242.956 52.384 242.692 52.236 242.46 52.044C242.228 51.844 242.044 51.612 241.908 51.348H241.884V54.9H240.84ZM243.984 51.756C244.416 51.756 244.788 51.664 245.1 51.48C245.42 51.288 245.668 51.016 245.844 50.664C246.028 50.312 246.12 49.884 246.12 49.38C246.12 48.876 246.028 48.448 245.844 48.096C245.668 47.744 245.42 47.476 245.1 47.292C244.788 47.1 244.416 47.004 243.984 47.004C243.552 47.004 243.172 47.1 242.844 47.292C242.516 47.476 242.26 47.744 242.076 48.096C241.9 48.448 241.812 48.876 241.812 49.38C241.812 49.868 241.904 50.292 242.088 50.652C242.28 51.004 242.536 51.276 242.856 51.468C243.184 51.66 243.56 51.756 243.984 51.756ZM251.572 52.644C250.908 52.644 250.332 52.508 249.844 52.236C249.364 51.964 248.996 51.58 248.74 51.084C248.484 50.588 248.356 50.008 248.356 49.344C248.356 48.696 248.492 48.132 248.764 47.652C249.036 47.164 249.412 46.788 249.892 46.524C250.372 46.252 250.924 46.116 251.548 46.116C252.156 46.116 252.688 46.236 253.144 46.476C253.608 46.716 253.964 47.056 254.212 47.496C254.468 47.928 254.596 48.448 254.596 49.056C254.596 49.152 254.596 49.252 254.596 49.356C254.596 49.452 254.592 49.532 254.584 49.596H248.98V48.816H253.948L253.564 49.068C253.572 48.62 253.492 48.24 253.324 47.928C253.164 47.608 252.928 47.368 252.616 47.208C252.304 47.04 251.94 46.956 251.524 46.956C251.124 46.956 250.764 47.036 250.444 47.196C250.132 47.356 249.88 47.604 249.688 47.94C249.504 48.268 249.412 48.692 249.412 49.212V49.38C249.412 50.14 249.6 50.732 249.976 51.156C250.36 51.572 250.912 51.78 251.632 51.78C252.08 51.78 252.464 51.696 252.784 51.528C253.104 51.352 253.36 51.092 253.552 50.748L254.404 51.144C254.252 51.472 254.04 51.748 253.768 51.972C253.504 52.196 253.184 52.364 252.808 52.476C252.44 52.588 252.028 52.644 251.572 52.644ZM255.934 52.5V46.26H256.978V52.5H255.934ZM256.27 47.148V46.26H260.182V47.148H256.27ZM261.231 52.5V46.26H262.275V51.78H262.287L265.455 46.26H267.111V52.5H266.079V46.98H266.055L262.899 52.5H261.231ZM271.753 52.644C271.121 52.644 270.557 52.512 270.061 52.248C269.573 51.984 269.189 51.608 268.909 51.12C268.629 50.632 268.489 50.052 268.489 49.38C268.489 48.708 268.629 48.128 268.909 47.64C269.189 47.152 269.577 46.776 270.073 46.512C270.569 46.248 271.129 46.116 271.753 46.116C272.385 46.116 272.945 46.248 273.433 46.512C273.929 46.776 274.317 47.152 274.597 47.64C274.877 48.128 275.017 48.708 275.017 49.38C275.017 50.052 274.877 50.632 274.597 51.12C274.317 51.608 273.929 51.984 273.433 52.248C272.945 52.512 272.385 52.644 271.753 52.644ZM271.753 51.756C272.169 51.756 272.541 51.668 272.869 51.492C273.197 51.316 273.457 51.052 273.649 50.7C273.841 50.348 273.937 49.908 273.937 49.38C273.937 48.852 273.841 48.412 273.649 48.06C273.457 47.7 273.197 47.432 272.869 47.256C272.541 47.08 272.169 46.992 271.753 46.992C271.345 46.992 270.973 47.08 270.637 47.256C270.309 47.432 270.049 47.7 269.857 48.06C269.665 48.412 269.569 48.852 269.569 49.38C269.569 49.908 269.665 50.348 269.857 50.7C270.049 51.052 270.309 51.316 270.637 51.492C270.973 51.668 271.345 51.756 271.753 51.756ZM280.955 52.5V46.26H281.987V52.5H280.955ZM276.383 52.5V46.26H277.427V52.5H276.383ZM277.031 49.716V48.828H281.339V49.716H277.031ZM285.664 52.644C284.984 52.644 284.436 52.484 284.02 52.164C283.612 51.836 283.408 51.396 283.408 50.844C283.408 50.324 283.596 49.9 283.972 49.572C284.348 49.244 284.88 49.036 285.568 48.948L288.436 48.528V49.272L285.892 49.644C285.412 49.716 285.056 49.848 284.824 50.04C284.6 50.224 284.488 50.48 284.488 50.808C284.488 51.136 284.604 51.388 284.836 51.564C285.076 51.74 285.412 51.828 285.844 51.828C286.26 51.828 286.62 51.752 286.924 51.6C287.236 51.448 287.476 51.232 287.644 50.952C287.812 50.672 287.896 50.344 287.896 49.968V48.36C287.896 47.92 287.764 47.58 287.5 47.34C287.236 47.092 286.844 46.968 286.324 46.968C285.86 46.968 285.48 47.06 285.184 47.244C284.896 47.428 284.696 47.7 284.584 48.06L283.588 47.808C283.748 47.28 284.068 46.868 284.548 46.572C285.028 46.268 285.628 46.116 286.348 46.116C287.204 46.116 287.848 46.316 288.28 46.716C288.712 47.108 288.928 47.668 288.928 48.396V51.228L289.456 52.5H288.34L287.956 51.54H287.92C287.704 51.884 287.4 52.156 287.008 52.356C286.616 52.548 286.168 52.644 285.664 52.644ZM290.701 52.584C290.573 52.584 290.457 52.572 290.353 52.548C290.249 52.532 290.157 52.508 290.077 52.476V51.588C290.141 51.62 290.209 51.644 290.281 51.66C290.361 51.668 290.445 51.672 290.533 51.672C290.805 51.672 291.021 51.564 291.181 51.348C291.341 51.124 291.441 50.72 291.481 50.136C291.497 49.92 291.509 49.712 291.517 49.512C291.533 49.312 291.545 49.112 291.553 48.912C291.561 48.704 291.569 48.484 291.577 48.252L291.661 46.26H296.485V52.5H295.441V46.56L295.717 47.148H291.937L292.585 46.56L292.513 48.324C292.497 48.66 292.481 48.98 292.465 49.284C292.457 49.58 292.441 49.896 292.417 50.232C292.385 50.808 292.301 51.268 292.165 51.612C292.029 51.956 291.841 52.204 291.601 52.356C291.361 52.508 291.061 52.584 290.701 52.584ZM298.18 52.5V46.26H299.224V48.396H301.168C301.92 48.396 302.512 48.572 302.944 48.924C303.376 49.276 303.592 49.784 303.592 50.448C303.592 51.112 303.376 51.62 302.944 51.972C302.512 52.324 301.92 52.5 301.168 52.5H298.18ZM299.224 51.672H301.072C301.56 51.672 301.92 51.564 302.152 51.348C302.392 51.124 302.512 50.824 302.512 50.448C302.512 50.072 302.392 49.776 302.152 49.56C301.92 49.336 301.56 49.224 301.072 49.224H299.224V51.672ZM309.396 52.5V46.26H310.428V52.5H309.396ZM304.824 52.5V46.26H305.868V52.5H304.824ZM305.472 49.716V48.828H309.78V49.716H305.472ZM314.105 52.644C313.425 52.644 312.877 52.484 312.461 52.164C312.053 51.836 311.849 51.396 311.849 50.844C311.849 50.324 312.037 49.9 312.413 49.572C312.789 49.244 313.321 49.036 314.009 48.948L316.877 48.528V49.272L314.333 49.644C313.853 49.716 313.497 49.848 313.265 50.04C313.041 50.224 312.929 50.48 312.929 50.808C312.929 51.136 313.045 51.388 313.277 51.564C313.517 51.74 313.853 51.828 314.285 51.828C314.701 51.828 315.061 51.752 315.365 51.6C315.677 51.448 315.917 51.232 316.085 50.952C316.253 50.672 316.337 50.344 316.337 49.968V48.36C316.337 47.92 316.205 47.58 315.941 47.34C315.677 47.092 315.285 46.968 314.765 46.968C314.301 46.968 313.921 47.06 313.625 47.244C313.337 47.428 313.137 47.7 313.025 48.06L312.029 47.808C312.189 47.28 312.509 46.868 312.989 46.572C313.469 46.268 314.069 46.116 314.789 46.116C315.645 46.116 316.289 46.316 316.721 46.716C317.153 47.108 317.369 47.668 317.369 48.396V51.228L317.897 52.5H316.781L316.397 51.54H316.361C316.145 51.884 315.841 52.156 315.449 52.356C315.057 52.548 314.609 52.644 314.105 52.644ZM323.417 52.5V49.8H322.745L322.661 49.968H321.245C320.773 49.968 320.365 49.896 320.021 49.752C319.677 49.608 319.413 49.4 319.229 49.128C319.045 48.856 318.953 48.52 318.953 48.12C318.953 47.72 319.045 47.384 319.229 47.112C319.413 46.832 319.677 46.62 320.021 46.476C320.365 46.332 320.773 46.26 321.245 46.26H324.449V52.5H323.417ZM318.665 52.5L322.565 49.416H323.861L320.069 52.5H318.665ZM321.353 49.176H323.417V47.088H321.353C320.905 47.088 320.573 47.18 320.357 47.364C320.141 47.548 320.033 47.804 320.033 48.132C320.033 48.46 320.141 48.716 320.357 48.9C320.581 49.084 320.913 49.176 321.353 49.176ZM245.448 65.5L243 62.104L245.412 59.26H246.636L243.816 62.512L243.888 61.744L246.648 65.5H245.448ZM240.84 65.5V59.26H241.884V65.5H240.84ZM241.296 62.596V61.708H243.54V62.596H241.296ZM250.355 65.644C249.723 65.644 249.159 65.512 248.663 65.248C248.175 64.984 247.791 64.608 247.511 64.12C247.231 63.632 247.091 63.052 247.091 62.38C247.091 61.708 247.231 61.128 247.511 60.64C247.791 60.152 248.179 59.776 248.675 59.512C249.171 59.248 249.731 59.116 250.355 59.116C250.987 59.116 251.547 59.248 252.035 59.512C252.531 59.776 252.919 60.152 253.199 60.64C253.479 61.128 253.618 61.708 253.618 62.38C253.618 63.052 253.479 63.632 253.199 64.12C252.919 64.608 252.531 64.984 252.035 65.248C251.547 65.512 250.987 65.644 250.355 65.644ZM250.355 64.756C250.771 64.756 251.143 64.668 251.471 64.492C251.799 64.316 252.059 64.052 252.251 63.7C252.443 63.348 252.539 62.908 252.539 62.38C252.539 61.852 252.443 61.412 252.251 61.06C252.059 60.7 251.799 60.432 251.471 60.256C251.143 60.08 250.771 59.992 250.355 59.992C249.947 59.992 249.575 60.08 249.239 60.256C248.911 60.432 248.651 60.7 248.459 61.06C248.267 61.412 248.171 61.852 248.171 62.38C248.171 62.908 248.267 63.348 248.459 63.7C248.651 64.052 248.911 64.316 249.239 64.492C249.575 64.668 249.947 64.756 250.355 64.756ZM254.985 65.5V59.26H256.869L258.813 64.9H258.849L260.781 59.26H262.665V65.5H261.633V59.872H261.609L259.629 65.5H258.021L256.041 59.872H256.017V65.5H254.985ZM268.836 65.5V59.26H269.868V65.5H268.836ZM264.348 65.5V59.26H265.392V65.5H264.348ZM265.116 60.148V59.26H269.076V60.148H265.116ZM273.535 65.644C272.855 65.644 272.307 65.484 271.891 65.164C271.483 64.836 271.279 64.396 271.279 63.844C271.279 63.324 271.467 62.9 271.843 62.572C272.219 62.244 272.751 62.036 273.439 61.948L276.307 61.528V62.272L273.763 62.644C273.283 62.716 272.927 62.848 272.695 63.04C272.471 63.224 272.359 63.48 272.359 63.808C272.359 64.136 272.475 64.388 272.707 64.564C272.947 64.74 273.283 64.828 273.715 64.828C274.131 64.828 274.491 64.752 274.795 64.6C275.107 64.448 275.347 64.232 275.515 63.952C275.683 63.672 275.767 63.344 275.767 62.968V61.36C275.767 60.92 275.635 60.58 275.371 60.34C275.107 60.092 274.715 59.968 274.195 59.968C273.731 59.968 273.351 60.06 273.055 60.244C272.767 60.428 272.567 60.7 272.455 61.06L271.459 60.808C271.619 60.28 271.939 59.868 272.419 59.572C272.899 59.268 273.499 59.116 274.219 59.116C275.075 59.116 275.719 59.316 276.151 59.716C276.583 60.108 276.799 60.668 276.799 61.396V64.228L277.327 65.5H276.211L275.827 64.54H275.791C275.575 64.884 275.271 65.156 274.879 65.356C274.487 65.548 274.039 65.644 273.535 65.644ZM283.135 65.5V59.26H284.167V65.5H283.135ZM278.563 65.5V59.26H279.607V65.5H278.563ZM279.211 62.716V61.828H283.519V62.716H279.211ZM285.863 65.5V59.26H286.907V64.78H286.919L290.087 59.26H291.743V65.5H290.711V59.98H290.687L287.531 65.5H285.863ZM297.718 65.5V62.8H297.046L296.962 62.968H295.546C295.074 62.968 294.666 62.896 294.322 62.752C293.978 62.608 293.714 62.4 293.53 62.128C293.346 61.856 293.254 61.52 293.254 61.12C293.254 60.72 293.346 60.384 293.53 60.112C293.714 59.832 293.978 59.62 294.322 59.476C294.666 59.332 295.074 59.26 295.546 59.26H298.75V65.5H297.718ZM292.966 65.5L296.866 62.416H298.162L294.37 65.5H292.966ZM295.654 62.176H297.718V60.088H295.654C295.206 60.088 294.874 60.18 294.658 60.364C294.442 60.548 294.334 60.804 294.334 61.132C294.334 61.46 294.442 61.716 294.658 61.9C294.882 62.084 295.214 62.176 295.654 62.176Z" fill="black"/>
<circle cx="48" cy="48" r="36.5" stroke="url(#paint0_linear_2005_11469)" stroke-width="23"/>
<defs>
<linearGradient id="paint0_linear_2005_11469" x1="38.5" y1="35" x2="96" y2="96" gradientUnits="userSpaceOnUse">
<stop stop-color="#193E81"/>
<stop offset="1" stop-color="#004CBE"/>
</linearGradient>
</defs>
</svg>
