<svg width="218" height="96" viewBox="0 0 218 96" fill="none" xmlns="http://www.w3.org/2000/svg">
<path d="M126.88 65.816C123.136 65.816 119.872 65.08 117.088 63.608C114.304 62.136 112.144 60.072 110.608 57.416C109.072 54.76 108.304 51.656 108.304 48.104C108.304 44.52 109.072 41.4 110.608 38.744C112.144 36.088 114.304 34.024 117.088 32.552C119.872 31.08 123.136 30.344 126.88 30.344C130.624 30.344 133.872 31.08 136.624 32.552C139.408 34.024 141.568 36.088 143.104 38.744C144.64 41.4 145.408 44.52 145.408 48.104C145.408 51.656 144.64 54.76 143.104 57.416C141.568 60.072 139.408 62.136 136.624 63.608C133.872 65.08 130.624 65.816 126.88 65.816ZM126.88 60.296C129.248 60.296 131.296 59.8 133.024 58.808C134.784 57.784 136.144 56.36 137.104 54.536C138.064 52.712 138.544 50.568 138.544 48.104C138.544 45.64 138.064 43.496 137.104 41.672C136.144 39.816 134.784 38.392 133.024 37.4C131.264 36.376 129.216 35.864 126.88 35.864C124.512 35.864 122.448 36.376 120.688 37.4C118.96 38.392 117.6 39.816 116.608 41.672C115.648 43.496 115.168 45.64 115.168 48.104C115.168 50.568 115.648 52.712 116.608 54.536C117.568 56.36 118.928 57.784 120.688 58.808C122.448 59.8 124.512 60.296 126.88 60.296ZM151.415 65V31.16H167.543C170.103 31.16 172.279 31.576 174.071 32.408C175.895 33.208 177.287 34.392 178.247 35.96C179.239 37.496 179.735 39.352 179.735 41.528C179.735 43.672 179.239 45.512 178.247 47.048C177.287 48.584 175.895 49.768 174.071 50.6C172.279 51.432 170.103 51.848 167.543 51.848H156.263V46.664H166.727C168.839 46.664 170.455 46.248 171.575 45.416C172.727 44.552 173.303 43.24 173.303 41.48C173.303 39.72 172.727 38.424 171.575 37.592C170.455 36.76 168.839 36.344 166.727 36.344H155.879L157.847 34.664V65H151.415ZM188.623 55.304L188.863 45.464H191.455L207.103 31.16H215.263L199.759 45.464L198.271 46.52L188.623 55.304ZM185.071 65V31.16H191.503V65H185.071ZM208.687 65L196.351 46.712L200.911 42.68L216.127 65H208.687Z" fill="black"/>
<circle cx="48" cy="48" r="36.5" stroke="url(#paint0_linear_2048_10147)" stroke-width="23"/>
<defs>
<linearGradient id="paint0_linear_2048_10147" x1="38.5" y1="35" x2="96" y2="96" gradientUnits="userSpaceOnUse">
<stop stop-color="#193E81"/>
<stop offset="1" stop-color="#004CBE"/>
</linearGradient>
</defs>
</svg>
